<svg width="106" height="142" viewBox="0 0 106 142" fill="none" xmlns="http://www.w3.org/2000/svg">
<path d="M52.8784 105.757C82.0823 105.757 105.757 82.0823 105.757 52.8784C105.757 23.6745 82.0823 0 52.8784 0C23.6745 0 0 23.6745 0 52.8784C0 82.0823 23.6745 105.757 52.8784 105.757Z" fill="#A472B0"/>
<path d="M79.9479 70.9248C61.9016 70.9248 43.9216 70.9248 25.8753 70.9248C25.8753 71.5883 25.8753 72.3181 25.8753 72.9815C25.8753 74.4412 24.9464 75.4364 23.6195 75.4364C22.2925 75.4364 21.3637 74.4412 21.3637 72.9815C21.3637 67.8065 21.3637 62.6314 21.3637 57.4564C21.3637 53.6083 24.3493 50.6227 28.1974 50.6227C44.6514 50.6227 61.1718 50.6227 77.6258 50.6227C81.4739 50.6227 84.4595 53.6083 84.4595 57.4564C84.4595 62.6314 84.4595 67.8065 84.4595 72.9815C84.4595 74.4412 83.5306 75.4364 82.2037 75.4364C80.8767 75.4364 79.9479 74.4412 79.9479 72.9815C79.9479 72.3181 79.9479 71.6546 79.9479 70.9248Z" fill="white"/>
<path d="M77.6921 46.111C75.37 46.111 73.1805 46.111 70.9247 46.111C70.9247 45.3812 70.9247 44.6514 70.9247 43.9216C70.8584 41.4004 68.9343 39.41 66.4131 39.41C64.1574 39.41 61.9016 39.41 59.6458 39.41C57.1246 39.41 55.2005 41.4004 55.1342 43.8552C55.1342 44.5851 55.1342 45.3149 55.1342 46.111C53.6746 46.111 52.1486 46.111 50.6226 46.111C50.6226 45.4476 50.6226 44.7841 50.6226 44.1206C50.6226 41.3341 48.6985 39.41 45.912 39.41C43.7889 39.41 41.6658 39.41 39.4763 39.41C36.7561 39.41 34.8321 41.3341 34.8321 44.0543C34.8321 44.7177 34.8321 45.3812 34.8321 46.1774C33.7042 46.1774 32.5763 46.1774 31.5147 46.1774C30.3868 46.1774 29.3253 46.1774 28.0647 46.1774C28.0647 45.912 28.0647 45.7129 28.0647 45.5139C28.0647 41.3341 28.0647 37.1542 28.0647 32.9744C28.0647 31.3157 28.9272 30.3868 30.6522 30.3868C45.4476 30.3868 60.2429 30.3868 75.1046 30.3868C76.8296 30.3868 77.6921 31.2494 77.6921 32.9744C77.6921 37.1542 77.6921 41.2677 77.6921 45.4476C77.6921 45.6466 77.6921 45.8456 77.6921 46.111Z" fill="white"/>
<path d="M4.27569 136.112C4.04102 136.112 3.85969 136.048 3.73169 135.92C3.60369 135.781 3.53969 135.589 3.53969 135.344V125.376C3.53969 125.12 3.60369 124.928 3.73169 124.8C3.85969 124.672 4.04102 124.608 4.27569 124.608C4.52102 124.608 4.70769 124.672 4.83569 124.8C4.96369 124.928 5.02769 125.12 5.02769 125.376V129.648H11.5557V125.376C11.5557 125.12 11.6197 124.928 11.7477 124.8C11.8757 124.672 12.0624 124.608 12.3077 124.608C12.5424 124.608 12.7237 124.672 12.8517 124.8C12.9797 124.928 13.0437 125.12 13.0437 125.376V135.344C13.0437 135.589 12.9797 135.781 12.8517 135.92C12.7237 136.048 12.5424 136.112 12.3077 136.112C12.0624 136.112 11.8757 136.048 11.7477 135.92C11.6197 135.781 11.5557 135.589 11.5557 135.344V130.912H5.02769V135.344C5.02769 135.589 4.96369 135.781 4.83569 135.92C4.71835 136.048 4.53169 136.112 4.27569 136.112ZM18.8784 136.144C18.1104 136.144 17.4438 135.979 16.8784 135.648C16.3131 135.317 15.8758 134.848 15.5664 134.24C15.2571 133.632 15.1024 132.917 15.1024 132.096C15.1024 131.477 15.1878 130.923 15.3584 130.432C15.5398 129.931 15.7958 129.504 16.1264 129.152C16.4571 128.8 16.8518 128.533 17.3104 128.352C17.7798 128.16 18.3024 128.064 18.8784 128.064C19.6464 128.064 20.3131 128.229 20.8784 128.56C21.4438 128.891 21.8811 129.36 22.1904 129.968C22.4998 130.565 22.6544 131.275 22.6544 132.096C22.6544 132.715 22.5638 133.275 22.3824 133.776C22.2118 134.277 21.9611 134.704 21.6304 135.056C21.2998 135.408 20.8998 135.68 20.4304 135.872C19.9718 136.053 19.4544 136.144 18.8784 136.144ZM18.8784 134.992C19.3478 134.992 19.7531 134.88 20.0944 134.656C20.4464 134.432 20.7131 134.107 20.8944 133.68C21.0864 133.253 21.1824 132.725 21.1824 132.096C21.1824 131.157 20.9744 130.443 20.5584 129.952C20.1424 129.461 19.5824 129.216 18.8784 129.216C18.4198 129.216 18.0144 129.328 17.6624 129.552C17.3211 129.765 17.0544 130.085 16.8624 130.512C16.6704 130.939 16.5744 131.467 16.5744 132.096C16.5744 133.035 16.7824 133.755 17.1984 134.256C17.6251 134.747 18.1851 134.992 18.8784 134.992ZM27.2076 136.144C26.7276 136.144 26.2422 136.091 25.7516 135.984C25.2716 135.867 24.8182 135.669 24.3916 135.392C24.2742 135.317 24.1889 135.227 24.1356 135.12C24.0929 135.003 24.0769 134.891 24.0876 134.784C24.1089 134.667 24.1569 134.565 24.2316 134.48C24.3062 134.395 24.3969 134.347 24.5036 134.336C24.6209 134.315 24.7436 134.341 24.8716 134.416C25.2876 134.651 25.6876 134.816 26.0716 134.912C26.4662 135.008 26.8556 135.056 27.2396 135.056C27.8262 135.056 28.2689 134.949 28.5676 134.736C28.8662 134.523 29.0156 134.24 29.0156 133.888C29.0156 133.589 28.9142 133.36 28.7116 133.2C28.5196 133.029 28.2156 132.901 27.7996 132.816L26.3116 132.512C25.6502 132.363 25.1489 132.117 24.8076 131.776C24.4769 131.424 24.3116 130.976 24.3116 130.432C24.3116 129.952 24.4396 129.536 24.6956 129.184C24.9622 128.821 25.3302 128.544 25.7996 128.352C26.2689 128.16 26.8076 128.064 27.4156 128.064C27.8849 128.064 28.3276 128.128 28.7436 128.256C29.1702 128.373 29.5542 128.555 29.8956 128.8C30.0236 128.875 30.1036 128.971 30.1356 129.088C30.1782 129.195 30.1836 129.307 30.1516 129.424C30.1302 129.531 30.0822 129.621 30.0076 129.696C29.9329 129.771 29.8369 129.819 29.7196 129.84C29.6022 129.851 29.4742 129.819 29.3356 129.744C29.0262 129.531 28.7062 129.381 28.3756 129.296C28.0556 129.2 27.7356 129.152 27.4156 129.152C26.8396 129.152 26.4022 129.264 26.1036 129.488C25.8156 129.712 25.6716 130.005 25.6716 130.368C25.6716 130.645 25.7569 130.875 25.9276 131.056C26.1089 131.237 26.3916 131.371 26.7756 131.456L28.2636 131.76C28.9569 131.909 29.4796 132.149 29.8316 132.48C30.1836 132.8 30.3596 133.237 30.3596 133.792C30.3596 134.517 30.0716 135.093 29.4956 135.52C28.9302 135.936 28.1676 136.144 27.2076 136.144ZM32.9739 138.992C32.7499 138.992 32.5739 138.928 32.4459 138.8C32.3179 138.672 32.2539 138.491 32.2539 138.256V128.832C32.2539 128.587 32.3179 128.405 32.4459 128.288C32.5739 128.16 32.7499 128.096 32.9739 128.096C33.2086 128.096 33.3846 128.16 33.5019 128.288C33.6299 128.405 33.6939 128.587 33.6939 128.832V130.288L33.5179 130C33.6886 129.413 34.0246 128.944 34.5259 128.592C35.0273 128.24 35.6299 128.064 36.3339 128.064C37.0273 128.064 37.6299 128.229 38.1419 128.56C38.6539 128.88 39.0539 129.344 39.3419 129.952C39.6299 130.549 39.7739 131.264 39.7739 132.096C39.7739 132.917 39.6299 133.637 39.3419 134.256C39.0646 134.864 38.6646 135.333 38.1419 135.664C37.6299 135.984 37.0273 136.144 36.3339 136.144C35.6406 136.144 35.0433 135.968 34.5419 135.616C34.0406 135.264 33.7046 134.8 33.5339 134.224H33.7099V138.256C33.7099 138.491 33.6459 138.672 33.5179 138.8C33.3899 138.928 33.2086 138.992 32.9739 138.992ZM35.9979 134.992C36.4566 134.992 36.8566 134.88 37.1979 134.656C37.5499 134.432 37.8219 134.107 38.0139 133.68C38.2059 133.253 38.3019 132.725 38.3019 132.096C38.3019 131.157 38.0939 130.443 37.6779 129.952C37.2619 129.461 36.7019 129.216 35.9979 129.216C35.5286 129.216 35.1179 129.328 34.7659 129.552C34.4246 129.765 34.1579 130.085 33.9659 130.512C33.7846 130.939 33.6939 131.467 33.6939 132.096C33.6939 133.035 33.9019 133.755 34.3179 134.256C34.7339 134.747 35.2939 134.992 35.9979 134.992ZM45.2446 136.144C44.4019 136.144 43.6766 135.984 43.0686 135.664C42.4712 135.333 42.0072 134.869 41.6766 134.272C41.3459 133.664 41.1806 132.949 41.1806 132.128C41.1806 131.317 41.3406 130.608 41.6606 130C41.9912 129.392 42.4392 128.917 43.0046 128.576C43.5806 128.235 44.2366 128.064 44.9726 128.064C45.4952 128.064 45.9646 128.155 46.3806 128.336C46.8072 128.507 47.1699 128.757 47.4686 129.088C47.7672 129.419 47.9912 129.824 48.1406 130.304C48.3006 130.773 48.3806 131.307 48.3806 131.904C48.3806 132.075 48.3272 132.208 48.2206 132.304C48.1246 132.389 47.9806 132.432 47.7886 132.432H42.3166V131.504H47.4206L47.1486 131.728C47.1486 131.173 47.0632 130.704 46.8926 130.32C46.7326 129.925 46.4926 129.627 46.1726 129.424C45.8632 129.221 45.4739 129.12 45.0046 129.12C44.4926 129.12 44.0552 129.243 43.6926 129.488C43.3299 129.723 43.0526 130.059 42.8606 130.496C42.6686 130.923 42.5726 131.419 42.5726 131.984V132.08C42.5726 133.04 42.8019 133.765 43.2606 134.256C43.7192 134.747 44.3806 134.992 45.2446 134.992C45.5859 134.992 45.9326 134.949 46.2846 134.864C46.6472 134.779 46.9939 134.624 47.3246 134.4C47.4846 134.304 47.6286 134.261 47.7566 134.272C47.8952 134.272 48.0072 134.315 48.0926 134.4C48.1779 134.475 48.2312 134.571 48.2526 134.688C48.2739 134.795 48.2579 134.912 48.2046 135.04C48.1512 135.168 48.0499 135.28 47.9006 135.376C47.5486 135.621 47.1272 135.813 46.6366 135.952C46.1566 136.08 45.6926 136.144 45.2446 136.144ZM53.1674 136.144C52.4848 136.144 51.8821 135.984 51.3594 135.664C50.8474 135.333 50.4474 134.864 50.1594 134.256C49.8714 133.637 49.7274 132.917 49.7274 132.096C49.7274 131.264 49.8661 130.549 50.1434 129.952C50.4314 129.344 50.8314 128.88 51.3434 128.56C51.8661 128.229 52.4741 128.064 53.1674 128.064C53.8608 128.064 54.4581 128.24 54.9594 128.592C55.4608 128.933 55.7968 129.392 55.9674 129.968H55.7914V125.344C55.7914 125.099 55.8501 124.917 55.9674 124.8C56.0954 124.672 56.2768 124.608 56.5114 124.608C56.7461 124.608 56.9274 124.672 57.0554 124.8C57.1834 124.917 57.2474 125.099 57.2474 125.344V135.36C57.2474 135.605 57.1834 135.792 57.0554 135.92C56.9274 136.048 56.7461 136.112 56.5114 136.112C56.2874 136.112 56.1114 136.048 55.9834 135.92C55.8554 135.792 55.7914 135.605 55.7914 135.36V133.904L55.9674 134.192C55.8074 134.789 55.4714 135.264 54.9594 135.616C54.4581 135.968 53.8608 136.144 53.1674 136.144ZM53.5034 134.992C53.9728 134.992 54.3781 134.88 54.7194 134.656C55.0714 134.432 55.3381 134.107 55.5194 133.68C55.7114 133.253 55.8074 132.725 55.8074 132.096C55.8074 131.157 55.5994 130.443 55.1834 129.952C54.7674 129.461 54.2074 129.216 53.5034 129.216C53.0448 129.216 52.6394 129.328 52.2874 129.552C51.9461 129.765 51.6794 130.085 51.4874 130.512C51.2954 130.939 51.1994 131.467 51.1994 132.096C51.1994 133.035 51.4074 133.755 51.8234 134.256C52.2501 134.747 52.8101 134.992 53.5034 134.992ZM62.0621 136.144C61.5287 136.144 61.0434 136.037 60.6061 135.824C60.1794 135.611 59.8434 135.323 59.5981 134.96C59.3634 134.597 59.2461 134.192 59.2461 133.744C59.2461 133.168 59.3901 132.715 59.6781 132.384C59.9661 132.053 60.4514 131.819 61.1341 131.68C61.8167 131.531 62.7341 131.456 63.8861 131.456H64.6381V132.384H63.9181C63.0967 132.384 62.4461 132.421 61.9661 132.496C61.4967 132.571 61.1661 132.704 60.9741 132.896C60.7821 133.077 60.6861 133.333 60.6861 133.664C60.6861 134.08 60.8301 134.421 61.1181 134.688C61.4167 134.955 61.8221 135.088 62.3341 135.088C62.7394 135.088 63.0967 134.992 63.4061 134.8C63.7154 134.597 63.9607 134.331 64.1421 134C64.3234 133.659 64.4141 133.269 64.4141 132.832V130.992C64.4141 130.363 64.2861 129.909 64.0301 129.632C63.7741 129.344 63.3421 129.2 62.7341 129.2C62.3821 129.2 62.0194 129.248 61.6461 129.344C61.2727 129.44 60.8834 129.589 60.4781 129.792C60.3181 129.867 60.1794 129.893 60.0621 129.872C59.9447 129.84 59.8487 129.776 59.7741 129.68C59.7101 129.573 59.6727 129.461 59.6621 129.344C59.6621 129.216 59.6887 129.093 59.7421 128.976C59.8061 128.859 59.9127 128.773 60.0621 128.72C60.5314 128.485 60.9954 128.32 61.4541 128.224C61.9234 128.117 62.3607 128.064 62.7661 128.064C63.4594 128.064 64.0301 128.176 64.4781 128.4C64.9261 128.613 65.2621 128.949 65.4861 129.408C65.7101 129.856 65.8221 130.432 65.8221 131.136V135.36C65.8221 135.605 65.7634 135.792 65.6461 135.92C65.5287 136.048 65.3581 136.112 65.1341 136.112C64.9207 136.112 64.7501 136.048 64.6221 135.92C64.5047 135.792 64.4461 135.605 64.4461 135.36V134.224H64.5901C64.5047 134.619 64.3447 134.96 64.1101 135.248C63.8754 135.536 63.5821 135.76 63.2301 135.92C62.8887 136.069 62.4994 136.144 62.0621 136.144ZM71.6173 139.024C71.0413 139.024 70.4813 138.96 69.9373 138.832C69.404 138.704 68.9186 138.507 68.4813 138.24C68.3426 138.155 68.2466 138.053 68.1933 137.936C68.1506 137.829 68.14 137.717 68.1613 137.6C68.1933 137.483 68.2466 137.376 68.3213 137.28C68.4066 137.195 68.5026 137.136 68.6093 137.104C68.7266 137.083 68.844 137.109 68.9613 137.184C69.4306 137.451 69.8786 137.632 70.3053 137.728C70.732 137.824 71.1373 137.872 71.5213 137.872C72.2786 137.872 72.844 137.675 73.2173 137.28C73.6013 136.896 73.7933 136.331 73.7933 135.584V133.856H73.9373C73.788 134.453 73.452 134.928 72.9293 135.28C72.4173 135.632 71.82 135.808 71.1373 135.808C70.4333 135.808 69.82 135.648 69.2973 135.328C68.7746 134.997 68.3693 134.544 68.0813 133.968C67.7933 133.381 67.6493 132.704 67.6493 131.936C67.6493 131.349 67.7293 130.821 67.8893 130.352C68.06 129.872 68.2946 129.467 68.5933 129.136C68.9026 128.795 69.2706 128.533 69.6973 128.352C70.124 128.16 70.604 128.064 71.1373 128.064C71.8306 128.064 72.4333 128.24 72.9453 128.592C73.4573 128.944 73.788 129.419 73.9373 130.016L73.7613 130.24V128.832C73.7613 128.587 73.8253 128.405 73.9533 128.288C74.0813 128.16 74.2626 128.096 74.4973 128.096C74.7213 128.096 74.8973 128.16 75.0253 128.288C75.1533 128.405 75.2173 128.587 75.2173 128.832V135.392C75.2173 136.597 74.908 137.504 74.2893 138.112C73.6813 138.72 72.7906 139.024 71.6173 139.024ZM71.4573 134.656C71.9373 134.656 72.348 134.549 72.6893 134.336C73.0413 134.112 73.308 133.797 73.4893 133.392C73.6813 132.976 73.7773 132.491 73.7773 131.936C73.7773 131.093 73.5693 130.432 73.1533 129.952C72.7373 129.461 72.172 129.216 71.4573 129.216C70.9773 129.216 70.5613 129.328 70.2093 129.552C69.868 129.765 69.6013 130.075 69.4093 130.48C69.2173 130.885 69.1213 131.371 69.1213 131.936C69.1213 132.768 69.3293 133.429 69.7453 133.92C70.172 134.411 70.7426 134.656 71.4573 134.656ZM81.1508 136.144C80.3081 136.144 79.5828 135.984 78.9748 135.664C78.3775 135.333 77.9135 134.869 77.5828 134.272C77.2521 133.664 77.0868 132.949 77.0868 132.128C77.0868 131.317 77.2468 130.608 77.5668 130C77.8975 129.392 78.3455 128.917 78.9108 128.576C79.4868 128.235 80.1428 128.064 80.8788 128.064C81.4015 128.064 81.8708 128.155 82.2868 128.336C82.7135 128.507 83.0761 128.757 83.3748 129.088C83.6735 129.419 83.8975 129.824 84.0468 130.304C84.2068 130.773 84.2868 131.307 84.2868 131.904C84.2868 132.075 84.2335 132.208 84.1268 132.304C84.0308 132.389 83.8868 132.432 83.6948 132.432H78.2228V131.504H83.3268L83.0548 131.728C83.0548 131.173 82.9695 130.704 82.7988 130.32C82.6388 129.925 82.3988 129.627 82.0788 129.424C81.7695 129.221 81.3801 129.12 80.9108 129.12C80.3988 129.12 79.9615 129.243 79.5988 129.488C79.2361 129.723 78.9588 130.059 78.7668 130.496C78.5748 130.923 78.4788 131.419 78.4788 131.984V132.08C78.4788 133.04 78.7081 133.765 79.1668 134.256C79.6255 134.747 80.2868 134.992 81.1508 134.992C81.4921 134.992 81.8388 134.949 82.1908 134.864C82.5535 134.779 82.9001 134.624 83.2308 134.4C83.3908 134.304 83.5348 134.261 83.6628 134.272C83.8015 134.272 83.9135 134.315 83.9988 134.4C84.0841 134.475 84.1375 134.571 84.1588 134.688C84.1801 134.795 84.1641 134.912 84.1108 135.04C84.0575 135.168 83.9561 135.28 83.8068 135.376C83.4548 135.621 83.0335 135.813 82.5428 135.952C82.0628 136.08 81.5988 136.144 81.1508 136.144ZM86.8177 136.112C86.5937 136.112 86.4177 136.048 86.2897 135.92C86.1617 135.792 86.0977 135.605 86.0977 135.36V128.832C86.0977 128.587 86.1617 128.405 86.2897 128.288C86.4177 128.16 86.5937 128.096 86.8177 128.096C87.0417 128.096 87.2124 128.16 87.3297 128.288C87.4577 128.405 87.5217 128.587 87.5217 128.832V130.144L87.3457 129.904C87.5697 129.296 87.9324 128.837 88.4337 128.528C88.9457 128.219 89.527 128.064 90.1777 128.064C90.807 128.064 91.3244 128.176 91.7297 128.4C92.135 128.624 92.439 128.965 92.6417 129.424C92.8444 129.883 92.9457 130.464 92.9457 131.168V135.36C92.9457 135.605 92.8817 135.792 92.7537 135.92C92.6364 136.048 92.4604 136.112 92.2257 136.112C91.991 136.112 91.8097 136.048 91.6817 135.92C91.5537 135.792 91.4897 135.605 91.4897 135.36V131.248C91.4897 130.555 91.3564 130.048 91.0897 129.728C90.823 129.408 90.3964 129.248 89.8097 129.248C89.127 129.248 88.5777 129.461 88.1617 129.888C87.7564 130.304 87.5537 130.869 87.5537 131.584V135.36C87.5537 135.861 87.3084 136.112 86.8177 136.112ZM97.9419 136.144C97.4619 136.144 96.9766 136.091 96.4859 135.984C96.0059 135.867 95.5526 135.669 95.1259 135.392C95.0086 135.317 94.9233 135.227 94.8699 135.12C94.8273 135.003 94.8113 134.891 94.8219 134.784C94.8433 134.667 94.8913 134.565 94.9659 134.48C95.0406 134.395 95.1313 134.347 95.2379 134.336C95.3553 134.315 95.4779 134.341 95.6059 134.416C96.0219 134.651 96.4219 134.816 96.8059 134.912C97.2006 135.008 97.5899 135.056 97.9739 135.056C98.5606 135.056 99.0033 134.949 99.3019 134.736C99.6006 134.523 99.7499 134.24 99.7499 133.888C99.7499 133.589 99.6486 133.36 99.4459 133.2C99.2539 133.029 98.9499 132.901 98.5339 132.816L97.0459 132.512C96.3846 132.363 95.8833 132.117 95.5419 131.776C95.2113 131.424 95.0459 130.976 95.0459 130.432C95.0459 129.952 95.1739 129.536 95.4299 129.184C95.6966 128.821 96.0646 128.544 96.5339 128.352C97.0033 128.16 97.5419 128.064 98.1499 128.064C98.6193 128.064 99.0619 128.128 99.4779 128.256C99.9046 128.373 100.289 128.555 100.63 128.8C100.758 128.875 100.838 128.971 100.87 129.088C100.913 129.195 100.918 129.307 100.886 129.424C100.865 129.531 100.817 129.621 100.742 129.696C100.667 129.771 100.571 129.819 100.454 129.84C100.337 129.851 100.209 129.819 100.07 129.744C99.7606 129.531 99.4406 129.381 99.1099 129.296C98.7899 129.2 98.4699 129.152 98.1499 129.152C97.5739 129.152 97.1366 129.264 96.8379 129.488C96.5499 129.712 96.4059 130.005 96.4059 130.368C96.4059 130.645 96.4913 130.875 96.6619 131.056C96.8433 131.237 97.1259 131.371 97.5099 131.456L98.9979 131.76C99.6913 131.909 100.214 132.149 100.566 132.48C100.918 132.8 101.094 133.237 101.094 133.792C101.094 134.517 100.806 135.093 100.23 135.52C99.6646 135.936 98.9019 136.144 97.9419 136.144Z" fill="black"/>
</svg>
