<svg width="24" height="24" viewBox="0 0 24 24" fill="none" xmlns="http://www.w3.org/2000/svg">
<path fill-rule="evenodd" clip-rule="evenodd" d="M20.4708 0C14.6797 0 8.88863 0 3.09755 0C1.07741 0 0 1.07741 0 3.16489C0 6.06043 0 8.88863 0 11.7842C0 14.6797 0 17.5752 0 20.4708C0 22.4909 1.07741 23.5683 3.03021 23.5683C8.88863 23.5683 14.6797 23.5683 20.4708 23.5683C22.4909 23.5683 23.5683 22.4909 23.5683 20.4708C23.5683 14.6797 23.5683 8.88863 23.5683 3.09755C23.6357 1.07741 22.4909 0 20.4708 0ZM18.5853 2.62619C20.9421 2.62619 20.9421 2.62619 20.9421 4.98302C20.9421 7.27251 20.9421 7.27251 18.6526 7.27251C16.3632 7.27251 16.3632 7.27251 16.3632 4.98302C16.2958 2.62619 16.2958 2.62619 18.5853 2.62619ZM11.8515 7.20518C14.343 7.20518 16.4305 9.35999 16.3632 11.7842C16.3632 14.2757 14.2757 16.3632 11.7168 16.3632C9.22532 16.2958 7.13784 14.2083 7.20517 11.7842C7.27251 9.22532 9.35999 7.20518 11.8515 7.20518ZM20.9421 19.4607C20.9421 20.5381 20.6055 20.8748 19.528 20.8748C16.9692 20.8748 14.343 20.8748 11.7842 20.8748C9.22532 20.8748 6.66647 20.8748 4.10762 20.8748C3.03021 20.8748 2.69352 20.6055 2.69352 19.4607C2.69352 16.6325 2.69352 13.737 2.62619 10.8414C2.62619 10.0334 2.8282 9.83136 3.63626 9.8987C4.71367 9.96604 4.71367 9.96604 4.64633 10.9761C4.2423 14.6124 6.73381 18.1813 10.3701 18.8547C14.0737 19.528 17.7773 17.3059 18.7873 13.8043C19.124 12.7269 19.1914 11.5148 18.922 10.4374C18.8547 10.0334 18.922 9.96604 19.326 9.96604C20.9421 9.83136 20.9421 9.83136 20.9421 11.5148C20.9421 14.141 20.9421 16.8345 20.9421 19.4607Z" fill="white"/>
</svg>
