<svg width="31" height="33" viewBox="0 0 31 33" fill="none" xmlns="http://www.w3.org/2000/svg">
<path d="M9.65155 10.9287C12.1861 10.983 14.7206 10.8743 17.2551 10.6568C18.2379 10.5481 19.2207 10.4393 20.1517 10.3306L25.2725 0L7.84117 9.515L7.53082 10.8743C8.25497 10.9287 8.97913 10.8743 9.65155 10.9287Z" fill="#C1D4E0"/>
<path d="M13.7896 31.5354L29.2554 29.7956L27.445 11.6355C25.8932 11.853 24.3415 12.0705 22.7897 12.288L13.7896 31.5354Z" fill="#A472B0"/>
<path d="M26.6692 3.96912L23.9277 9.78686C25.014 9.62375 26.1002 9.46063 27.1864 9.35189L26.6692 3.96912Z" fill="#A472B0"/>
<path d="M30.083 10.1131C29.7209 9.8956 29.3071 9.67811 28.8933 9.73248C26.7726 10.0043 24.6518 10.2762 22.5311 10.5481C23.4622 8.64505 24.4449 6.8508 25.4794 5.05654C25.8415 4.40408 25.1691 1.52239 24.6001 2.44671C23.4104 4.45845 22.3759 6.63331 21.3414 8.80817C21.0311 9.46063 20.7207 10.1675 20.4104 10.8199C19.4276 10.9287 18.3931 11.0374 17.3586 11.1461C15.4448 11.3636 13.5309 11.4724 11.6171 11.5267C9.9619 11.5811 8.15152 11.853 6.54804 11.3093C6.49632 11.3093 5.72044 11.0918 5.82389 11.418C5.97907 11.7986 6.54804 11.9617 6.80667 12.0705C8.5136 12.6142 10.2205 12.4511 11.9792 12.4511C13.9965 12.4511 16.0137 12.2879 18.031 12.1248C18.6517 12.0705 19.2207 12.0161 19.8414 11.9617C18.4448 15.0065 17.0482 18.1057 15.7034 21.2049C14.9275 22.9447 14.1516 24.6303 13.324 26.3158C13.1689 26.6964 11.4619 30.7199 10.8412 29.8499C10.4792 29.3606 10.324 28.6537 10.1171 28.0557C9.80673 27.2945 9.5481 26.5333 9.23775 25.7721C8.56532 24.0865 7.78945 22.4554 6.91012 20.8786C5.35837 18.2144 3.03074 15.2784 0.341031 16.3114C-0.38312 16.5833 0.185856 19.5737 0.754832 19.3562C2.51349 18.7038 4.22041 19.7912 5.51354 21.5855C7.42737 24.1953 8.66877 27.4576 9.80673 30.6111C10.1688 31.6442 10.9964 33.819 12.0826 32.6772C13.2723 31.4811 13.9447 29.4149 14.7206 27.7838C17.2034 22.5098 19.4276 16.9639 21.9621 11.6899C24.7553 11.3636 27.4967 10.9287 30.2899 10.6024C30.7037 10.5481 30.1864 10.1675 30.083 10.1131Z" fill="#231F20"/>
<path d="M5.7722 18.6494C8.6688 22.7816 10.2723 28.0013 10.7895 29.1974V29.2518L18.9621 12.7229C18.6517 12.7773 18.3414 12.7773 17.9793 12.7773C15.2896 12.9948 12.6516 13.1035 10.0137 12.9404C9.03088 12.886 8.0481 12.886 7.06532 12.7773L5.7722 18.6494C5.7722 18.6494 5.72047 18.6494 5.7722 18.6494Z" fill="#C1D4E0"/>
<path d="M9.8067 31.1548C9.23772 28.9256 5.72042 21.7486 5.15144 21.4223L2.56519 32.5141L9.13427 32.5685L9.8067 31.2636C9.8067 31.2092 9.8067 31.2092 9.8067 31.1548Z" fill="#C1D4E0"/>
</svg>
