<svg width="106" height="142" viewBox="0 0 106 142" fill="none" xmlns="http://www.w3.org/2000/svg">
<path d="M52.5467 105.093C81.5674 105.093 105.093 81.5674 105.093 52.5467C105.093 23.5259 81.5674 0 52.5467 0C23.5259 0 0 23.5259 0 52.5467C0 81.5674 23.5259 105.093 52.5467 105.093Z" fill="#A472B0"/>
<path d="M81.5402 42.3292C81.5402 51.7505 81.5402 61.1717 81.5402 70.5266C81.5402 70.593 81.4739 70.593 81.4739 70.6593C80.744 74.1094 78.3556 76.0998 74.7728 76.0998C59.9112 76.0998 45.0495 76.0998 30.2541 76.0998C29.7897 76.0998 29.3253 76.0998 28.8609 76.0334C25.6762 75.4363 23.5531 72.8488 23.5531 69.5978C23.5531 60.9063 23.5531 52.2149 23.5531 43.4571C23.5531 39.4763 26.2733 36.7561 30.2541 36.6898C32.5763 36.6898 34.8321 36.6898 37.1542 36.6898C37.3532 36.6898 37.5523 36.6898 37.8177 36.6898C37.8177 36.0263 37.8177 35.3628 37.8177 34.7657C37.8177 31.2493 40.2062 28.8608 43.7225 28.8608C49.6274 28.8608 55.4659 28.8608 61.3708 28.8608C61.9016 28.8608 62.4987 28.8608 62.9631 29.0599C65.617 29.7897 67.2093 31.9128 67.2756 34.6994C67.2756 35.3628 67.2756 36.0263 67.2756 36.7561C67.541 36.7561 67.8064 36.7561 68.0055 36.7561C70.5266 36.7561 72.9815 36.7561 75.5027 36.7561C78.2229 36.8225 80.6113 38.7465 81.3412 41.334C81.3412 41.6658 81.4739 41.9975 81.5402 42.3292ZM52.5467 70.593C60.3092 70.593 66.7449 64.2237 66.7449 56.3948C66.7449 48.6322 60.3756 42.1965 52.5467 42.2629C44.7841 42.2629 38.3484 48.6322 38.3484 56.4611C38.3484 64.2237 44.7177 70.593 52.5467 70.593Z" fill="white"/>
<path d="M61.9016 56.4611C61.9016 61.6361 57.6554 65.816 52.4803 65.816C47.3716 65.816 43.1254 61.5698 43.1918 56.4611C43.1918 51.286 47.438 47.1062 52.613 47.1062C57.7217 47.1062 61.9016 51.3524 61.9016 56.4611Z" fill="white"/>
<path d="M23.1819 135.355C22.9473 135.355 22.7659 135.291 22.6379 135.163C22.5099 135.024 22.4459 134.832 22.4459 134.587V124.715C22.4459 124.47 22.5099 124.283 22.6379 124.155C22.7766 124.027 22.9633 123.963 23.1979 123.963H27.0059C28.2219 123.963 29.1553 124.262 29.8059 124.859C30.4673 125.456 30.7979 126.294 30.7979 127.371C30.7979 128.459 30.4673 129.302 29.8059 129.899C29.1553 130.496 28.2219 130.795 27.0059 130.795H23.9339V134.587C23.9339 134.832 23.8699 135.024 23.7419 135.163C23.6246 135.291 23.4379 135.355 23.1819 135.355ZM23.9339 129.595H26.8139C27.6459 129.595 28.2699 129.408 28.6859 129.035C29.1126 128.651 29.3259 128.096 29.3259 127.371C29.3259 126.646 29.1126 126.102 28.6859 125.739C28.2699 125.366 27.6459 125.179 26.8139 125.179H23.9339V129.595ZM34.5308 135.387C33.9975 135.387 33.5121 135.28 33.0748 135.067C32.6481 134.854 32.3121 134.566 32.0668 134.203C31.8321 133.84 31.7148 133.435 31.7148 132.987C31.7148 132.411 31.8588 131.958 32.1468 131.627C32.4348 131.296 32.9201 131.062 33.6028 130.923C34.2855 130.774 35.2028 130.699 36.3548 130.699H37.1068V131.627H36.3868C35.5655 131.627 34.9148 131.664 34.4348 131.739C33.9655 131.814 33.6348 131.947 33.4428 132.139C33.2508 132.32 33.1548 132.576 33.1548 132.907C33.1548 133.323 33.2988 133.664 33.5868 133.931C33.8855 134.198 34.2908 134.331 34.8028 134.331C35.2081 134.331 35.5655 134.235 35.8748 134.043C36.1841 133.84 36.4295 133.574 36.6108 133.243C36.7921 132.902 36.8828 132.512 36.8828 132.075V130.235C36.8828 129.606 36.7548 129.152 36.4988 128.875C36.2428 128.587 35.8108 128.443 35.2028 128.443C34.8508 128.443 34.4881 128.491 34.1148 128.587C33.7415 128.683 33.3521 128.832 32.9468 129.035C32.7868 129.11 32.6481 129.136 32.5308 129.115C32.4135 129.083 32.3175 129.019 32.2428 128.923C32.1788 128.816 32.1415 128.704 32.1308 128.587C32.1308 128.459 32.1575 128.336 32.2108 128.219C32.2748 128.102 32.3815 128.016 32.5308 127.963C33.0001 127.728 33.4641 127.563 33.9228 127.467C34.3921 127.36 34.8295 127.307 35.2348 127.307C35.9281 127.307 36.4988 127.419 36.9468 127.643C37.3948 127.856 37.7308 128.192 37.9548 128.651C38.1788 129.099 38.2908 129.675 38.2908 130.379V134.603C38.2908 134.848 38.2321 135.035 38.1148 135.163C37.9975 135.291 37.8268 135.355 37.6028 135.355C37.3895 135.355 37.2188 135.291 37.0908 135.163C36.9735 135.035 36.9148 134.848 36.9148 134.603V133.467H37.0588C36.9735 133.862 36.8135 134.203 36.5788 134.491C36.3441 134.779 36.0508 135.003 35.6988 135.163C35.3575 135.312 34.9681 135.387 34.5308 135.387ZM43.2701 135.387C42.7901 135.387 42.3047 135.334 41.8141 135.227C41.3341 135.11 40.8807 134.912 40.4541 134.635C40.3367 134.56 40.2514 134.47 40.1981 134.363C40.1554 134.246 40.1394 134.134 40.1501 134.027C40.1714 133.91 40.2194 133.808 40.2941 133.723C40.3687 133.638 40.4594 133.59 40.5661 133.579C40.6834 133.558 40.8061 133.584 40.9341 133.659C41.3501 133.894 41.7501 134.059 42.1341 134.155C42.5287 134.251 42.9181 134.299 43.3021 134.299C43.8887 134.299 44.3314 134.192 44.6301 133.979C44.9287 133.766 45.0781 133.483 45.0781 133.131C45.0781 132.832 44.9767 132.603 44.7741 132.443C44.5821 132.272 44.2781 132.144 43.8621 132.059L42.3741 131.755C41.7127 131.606 41.2114 131.36 40.8701 131.019C40.5394 130.667 40.3741 130.219 40.3741 129.675C40.3741 129.195 40.5021 128.779 40.7581 128.427C41.0247 128.064 41.3927 127.787 41.8621 127.595C42.3314 127.403 42.8701 127.307 43.4781 127.307C43.9474 127.307 44.3901 127.371 44.8061 127.499C45.2327 127.616 45.6167 127.798 45.9581 128.043C46.0861 128.118 46.1661 128.214 46.1981 128.331C46.2407 128.438 46.2461 128.55 46.2141 128.667C46.1927 128.774 46.1447 128.864 46.0701 128.939C45.9954 129.014 45.8994 129.062 45.7821 129.083C45.6647 129.094 45.5367 129.062 45.3981 128.987C45.0887 128.774 44.7687 128.624 44.4381 128.539C44.1181 128.443 43.7981 128.395 43.4781 128.395C42.9021 128.395 42.4647 128.507 42.1661 128.731C41.8781 128.955 41.7341 129.248 41.7341 129.611C41.7341 129.888 41.8194 130.118 41.9901 130.299C42.1714 130.48 42.4541 130.614 42.8381 130.699L44.3261 131.003C45.0194 131.152 45.5421 131.392 45.8941 131.723C46.2461 132.043 46.4221 132.48 46.4221 133.035C46.4221 133.76 46.1341 134.336 45.5581 134.763C44.9927 135.179 44.2301 135.387 43.2701 135.387ZM51.0044 135.387C50.5244 135.387 50.0391 135.334 49.5484 135.227C49.0684 135.11 48.6151 134.912 48.1884 134.635C48.0711 134.56 47.9858 134.47 47.9324 134.363C47.8898 134.246 47.8738 134.134 47.8844 134.027C47.9058 133.91 47.9538 133.808 48.0284 133.723C48.1031 133.638 48.1938 133.59 48.3004 133.579C48.4178 133.558 48.5404 133.584 48.6684 133.659C49.0844 133.894 49.4844 134.059 49.8684 134.155C50.2631 134.251 50.6524 134.299 51.0364 134.299C51.6231 134.299 52.0658 134.192 52.3644 133.979C52.6631 133.766 52.8124 133.483 52.8124 133.131C52.8124 132.832 52.7111 132.603 52.5084 132.443C52.3164 132.272 52.0124 132.144 51.5964 132.059L50.1084 131.755C49.4471 131.606 48.9458 131.36 48.6044 131.019C48.2738 130.667 48.1084 130.219 48.1084 129.675C48.1084 129.195 48.2364 128.779 48.4924 128.427C48.7591 128.064 49.1271 127.787 49.5964 127.595C50.0658 127.403 50.6044 127.307 51.2124 127.307C51.6818 127.307 52.1244 127.371 52.5404 127.499C52.9671 127.616 53.3511 127.798 53.6924 128.043C53.8204 128.118 53.9004 128.214 53.9324 128.331C53.9751 128.438 53.9804 128.55 53.9484 128.667C53.9271 128.774 53.8791 128.864 53.8044 128.939C53.7298 129.014 53.6338 129.062 53.5164 129.083C53.3991 129.094 53.2711 129.062 53.1324 128.987C52.8231 128.774 52.5031 128.624 52.1724 128.539C51.8524 128.443 51.5324 128.395 51.2124 128.395C50.6364 128.395 50.1991 128.507 49.9004 128.731C49.6124 128.955 49.4684 129.248 49.4684 129.611C49.4684 129.888 49.5538 130.118 49.7244 130.299C49.9058 130.48 50.1884 130.614 50.5724 130.699L52.0604 131.003C52.7538 131.152 53.2764 131.392 53.6284 131.723C53.9804 132.043 54.1564 132.48 54.1564 133.035C54.1564 133.76 53.8684 134.336 53.2924 134.763C52.7271 135.179 51.9644 135.387 51.0044 135.387ZM59.6508 135.387C58.8081 135.387 58.0828 135.227 57.4748 134.907C56.8775 134.576 56.4135 134.112 56.0828 133.515C55.7521 132.907 55.5868 132.192 55.5868 131.371C55.5868 130.56 55.7468 129.851 56.0668 129.243C56.3975 128.635 56.8455 128.16 57.4108 127.819C57.9868 127.478 58.6428 127.307 59.3788 127.307C59.9015 127.307 60.3708 127.398 60.7868 127.579C61.2135 127.75 61.5761 128 61.8748 128.331C62.1735 128.662 62.3975 129.067 62.5468 129.547C62.7068 130.016 62.7868 130.55 62.7868 131.147C62.7868 131.318 62.7335 131.451 62.6268 131.547C62.5308 131.632 62.3868 131.675 62.1948 131.675H56.7228V130.747H61.8268L61.5548 130.971C61.5548 130.416 61.4695 129.947 61.2988 129.563C61.1388 129.168 60.8988 128.87 60.5788 128.667C60.2695 128.464 59.8801 128.363 59.4108 128.363C58.8988 128.363 58.4615 128.486 58.0988 128.731C57.7361 128.966 57.4588 129.302 57.2668 129.739C57.0748 130.166 56.9788 130.662 56.9788 131.227V131.323C56.9788 132.283 57.2081 133.008 57.6668 133.499C58.1255 133.99 58.7868 134.235 59.6508 134.235C59.9921 134.235 60.3388 134.192 60.6908 134.107C61.0535 134.022 61.4001 133.867 61.7308 133.643C61.8908 133.547 62.0348 133.504 62.1628 133.515C62.3015 133.515 62.4135 133.558 62.4988 133.643C62.5841 133.718 62.6375 133.814 62.6588 133.931C62.6801 134.038 62.6641 134.155 62.6108 134.283C62.5575 134.411 62.4561 134.523 62.3068 134.619C61.9548 134.864 61.5335 135.056 61.0428 135.195C60.5628 135.323 60.0988 135.387 59.6508 135.387ZM65.3177 135.323C65.0937 135.323 64.9177 135.254 64.7897 135.115C64.6617 134.976 64.5977 134.784 64.5977 134.539V128.155C64.5977 127.899 64.6617 127.707 64.7897 127.579C64.9177 127.44 65.0937 127.371 65.3177 127.371C65.5524 127.371 65.7337 127.44 65.8617 127.579C65.9897 127.707 66.0537 127.899 66.0537 128.155V134.539C66.0537 134.784 65.9897 134.976 65.8617 135.115C65.7444 135.254 65.563 135.323 65.3177 135.323ZM65.3177 125.643C65.0297 125.643 64.8004 125.568 64.6297 125.419C64.4697 125.259 64.3897 125.051 64.3897 124.795C64.3897 124.518 64.4697 124.31 64.6297 124.171C64.8004 124.022 65.0297 123.947 65.3177 123.947C65.627 123.947 65.8564 124.022 66.0057 124.171C66.1657 124.31 66.2457 124.518 66.2457 124.795C66.2457 125.051 66.1657 125.259 66.0057 125.419C65.8564 125.568 65.627 125.643 65.3177 125.643ZM71.7066 135.387C70.9386 135.387 70.2719 135.222 69.7066 134.891C69.1412 134.56 68.7039 134.091 68.3946 133.483C68.0852 132.875 67.9306 132.16 67.9306 131.339C67.9306 130.72 68.0159 130.166 68.1866 129.675C68.3679 129.174 68.6239 128.747 68.9546 128.395C69.2852 128.043 69.6799 127.776 70.1386 127.595C70.6079 127.403 71.1306 127.307 71.7066 127.307C72.4746 127.307 73.1412 127.472 73.7066 127.803C74.2719 128.134 74.7092 128.603 75.0186 129.211C75.3279 129.808 75.4826 130.518 75.4826 131.339C75.4826 131.958 75.3919 132.518 75.2106 133.019C75.0399 133.52 74.7892 133.947 74.4586 134.299C74.1279 134.651 73.7279 134.923 73.2586 135.115C72.7999 135.296 72.2826 135.387 71.7066 135.387ZM71.7066 134.235C72.1759 134.235 72.5812 134.123 72.9226 133.899C73.2746 133.675 73.5412 133.35 73.7226 132.923C73.9146 132.496 74.0106 131.968 74.0106 131.339C74.0106 130.4 73.8026 129.686 73.3866 129.195C72.9706 128.704 72.4106 128.459 71.7066 128.459C71.2479 128.459 70.8426 128.571 70.4906 128.795C70.1492 129.008 69.8826 129.328 69.6906 129.755C69.4986 130.182 69.4026 130.71 69.4026 131.339C69.4026 132.278 69.6106 132.998 70.0266 133.499C70.4532 133.99 71.0132 134.235 71.7066 134.235ZM80.0357 135.387C79.5557 135.387 79.0704 135.334 78.5797 135.227C78.0997 135.11 77.6464 134.912 77.2197 134.635C77.1024 134.56 77.017 134.47 76.9637 134.363C76.921 134.246 76.905 134.134 76.9157 134.027C76.937 133.91 76.985 133.808 77.0597 133.723C77.1344 133.638 77.225 133.59 77.3317 133.579C77.449 133.558 77.5717 133.584 77.6997 133.659C78.1157 133.894 78.5157 134.059 78.8997 134.155C79.2944 134.251 79.6837 134.299 80.0677 134.299C80.6544 134.299 81.097 134.192 81.3957 133.979C81.6944 133.766 81.8437 133.483 81.8437 133.131C81.8437 132.832 81.7424 132.603 81.5397 132.443C81.3477 132.272 81.0437 132.144 80.6277 132.059L79.1397 131.755C78.4784 131.606 77.977 131.36 77.6357 131.019C77.305 130.667 77.1397 130.219 77.1397 129.675C77.1397 129.195 77.2677 128.779 77.5237 128.427C77.7904 128.064 78.1584 127.787 78.6277 127.595C79.097 127.403 79.6357 127.307 80.2437 127.307C80.713 127.307 81.1557 127.371 81.5717 127.499C81.9984 127.616 82.3824 127.798 82.7237 128.043C82.8517 128.118 82.9317 128.214 82.9637 128.331C83.0064 128.438 83.0117 128.55 82.9797 128.667C82.9584 128.774 82.9104 128.864 82.8357 128.939C82.761 129.014 82.665 129.062 82.5477 129.083C82.4304 129.094 82.3024 129.062 82.1637 128.987C81.8544 128.774 81.5344 128.624 81.2037 128.539C80.8837 128.443 80.5637 128.395 80.2437 128.395C79.6677 128.395 79.2304 128.507 78.9317 128.731C78.6437 128.955 78.4997 129.248 78.4997 129.611C78.4997 129.888 78.585 130.118 78.7557 130.299C78.937 130.48 79.2197 130.614 79.6037 130.699L81.0917 131.003C81.785 131.152 82.3077 131.392 82.6597 131.723C83.0117 132.043 83.1877 132.48 83.1877 133.035C83.1877 133.76 82.8997 134.336 82.3237 134.763C81.7584 135.179 80.9957 135.387 80.0357 135.387Z" fill="black"/>
</svg>
