<svg width="112" height="142" viewBox="0 0 112 142" fill="none" xmlns="http://www.w3.org/2000/svg">
<path d="M55.5466 105.093C84.5673 105.093 108.093 81.5674 108.093 52.5467C108.093 23.5259 84.5673 0 55.5466 0C26.5259 0 3 23.5259 3 52.5467C3 81.5674 26.5259 105.093 55.5466 105.093Z" fill="#A472B0"/>
<path d="M65.8304 64.3564C65.8304 59.3804 65.7641 54.4043 65.8968 49.4283C65.9631 48.2341 66.5602 46.8408 67.3564 45.9783C70.4083 42.7273 73.7257 39.609 76.9103 36.4244C79.0998 34.2349 79.2988 32.0455 77.5738 30.3205C75.9151 28.6618 73.593 28.9272 71.4035 31.0503C69.0814 33.3061 66.8919 35.6946 64.4371 37.884C63.5746 38.6802 62.1814 39.2773 60.9871 39.3436C56.8073 39.4763 52.2293 40.4715 48.5802 39.0782C45.0638 37.685 42.5427 33.8368 39.6234 30.9839C37.434 28.9272 35.1119 28.7281 33.4532 30.3868C31.7945 32.1118 32.0599 34.3013 34.2493 36.4907C37.3676 39.609 40.5523 42.661 43.6042 45.912C44.4667 46.8408 45.1302 48.3004 45.1302 49.561C45.2629 59.115 45.1965 68.6689 45.1965 78.2228C45.1965 79.218 45.1966 80.2132 45.3956 81.2085C45.86 83.5969 47.6514 84.9902 49.9736 84.9239C52.2294 84.7912 54.0207 83.1325 54.087 80.744C54.2197 76.7632 54.0207 72.7824 54.2197 68.8016C54.286 67.6074 53.0254 65.2852 55.5466 65.3516C57.9351 65.4179 56.6746 67.7401 56.7409 68.9343C56.9399 72.9151 56.8073 76.8959 56.94 80.8767C57.0063 83.1325 58.4659 84.5258 60.6554 84.9239C62.8448 85.2556 64.4371 84.2604 65.366 82.4027C65.8304 81.4738 65.8304 80.2796 65.8304 79.218C65.8967 74.1093 65.8304 69.266 65.8304 64.3564Z" fill="white"/>
<path d="M46.5235 29.3252C46.5899 34.3012 50.7697 38.2157 55.7457 38.083C60.6554 37.9503 64.5698 33.9695 64.5035 29.1262C64.4371 24.1502 60.39 20.1694 55.3477 20.3021C50.3053 20.3021 46.4572 24.2829 46.5235 29.3252Z" fill="white"/>
<path d="M5.32944 135.387C4.8281 135.387 4.34277 135.344 3.87344 135.259C3.4041 135.184 2.96144 135.067 2.54544 134.907C2.12944 134.747 1.7561 134.55 1.42544 134.315C1.28677 134.219 1.18544 134.102 1.12144 133.963C1.0681 133.824 1.0521 133.691 1.07344 133.563C1.10544 133.424 1.1641 133.307 1.24944 133.211C1.34544 133.115 1.45744 133.056 1.58544 133.035C1.71344 133.014 1.8521 133.056 2.00144 133.163C2.4921 133.494 3.0041 133.734 3.53744 133.883C4.08144 134.032 4.67877 134.107 5.32944 134.107C6.2681 134.107 6.9561 133.936 7.39344 133.595C7.84144 133.254 8.06544 132.806 8.06544 132.251C8.06544 131.792 7.90544 131.435 7.58544 131.179C7.26544 130.912 6.72677 130.704 5.96944 130.555L4.27344 130.203C3.27077 129.99 2.51877 129.638 2.01744 129.147C1.52677 128.656 1.28144 128 1.28144 127.179C1.28144 126.678 1.38277 126.224 1.58544 125.819C1.7881 125.403 2.0761 125.046 2.44944 124.747C2.82277 124.448 3.2601 124.219 3.76144 124.059C4.27344 123.899 4.83877 123.819 5.45744 123.819C6.11877 123.819 6.73744 123.91 7.31344 124.091C7.9001 124.272 8.4281 124.539 8.89744 124.891C9.02544 124.987 9.11077 125.104 9.15344 125.243C9.1961 125.371 9.20144 125.499 9.16944 125.627C9.1481 125.755 9.08944 125.862 8.99344 125.947C8.9081 126.032 8.7961 126.08 8.65744 126.091C8.52944 126.102 8.38544 126.054 8.22544 125.947C7.79877 125.648 7.36144 125.435 6.91344 125.307C6.46544 125.168 5.97477 125.099 5.44144 125.099C4.89744 125.099 4.42277 125.184 4.01744 125.355C3.62277 125.526 3.31344 125.766 3.08944 126.075C2.8761 126.374 2.76944 126.726 2.76944 127.131C2.76944 127.622 2.91877 128.006 3.21744 128.283C3.5161 128.56 4.01744 128.774 4.72144 128.923L6.40144 129.259C7.4681 129.483 8.25744 129.83 8.76944 130.299C9.2921 130.758 9.55344 131.376 9.55344 132.155C9.55344 132.646 9.4521 133.088 9.24944 133.483C9.05744 133.878 8.7801 134.219 8.41744 134.507C8.05477 134.784 7.6121 135.003 7.08944 135.163C6.56677 135.312 5.9801 135.387 5.32944 135.387ZM14.9321 135.387C14.0894 135.387 13.3641 135.227 12.7561 134.907C12.1587 134.576 11.6947 134.112 11.3641 133.515C11.0334 132.907 10.8681 132.192 10.8681 131.371C10.8681 130.56 11.0281 129.851 11.3481 129.243C11.6787 128.635 12.1267 128.16 12.6921 127.819C13.2681 127.478 13.9241 127.307 14.6601 127.307C15.1827 127.307 15.6521 127.398 16.0681 127.579C16.4947 127.75 16.8574 128 17.1561 128.331C17.4547 128.662 17.6787 129.067 17.8281 129.547C17.9881 130.016 18.0681 130.55 18.0681 131.147C18.0681 131.318 18.0147 131.451 17.9081 131.547C17.8121 131.632 17.6681 131.675 17.4761 131.675H12.0041V130.747H17.1081L16.8361 130.971C16.8361 130.416 16.7507 129.947 16.5801 129.563C16.4201 129.168 16.1801 128.87 15.8601 128.667C15.5507 128.464 15.1614 128.363 14.6921 128.363C14.1801 128.363 13.7427 128.486 13.3801 128.731C13.0174 128.966 12.7401 129.302 12.5481 129.739C12.3561 130.166 12.2601 130.662 12.2601 131.227V131.323C12.2601 132.283 12.4894 133.008 12.9481 133.499C13.4067 133.99 14.0681 134.235 14.9321 134.235C15.2734 134.235 15.6201 134.192 15.9721 134.107C16.3347 134.022 16.6814 133.867 17.0121 133.643C17.1721 133.547 17.3161 133.504 17.4441 133.515C17.5827 133.515 17.6947 133.558 17.7801 133.643C17.8654 133.718 17.9187 133.814 17.9401 133.931C17.9614 134.038 17.9454 134.155 17.8921 134.283C17.8387 134.411 17.7374 134.523 17.5881 134.619C17.2361 134.864 16.8147 135.056 16.3241 135.195C15.8441 135.323 15.3801 135.387 14.9321 135.387ZM23.3829 138.267C22.8069 138.267 22.2469 138.203 21.7029 138.075C21.1696 137.947 20.6843 137.75 20.2469 137.483C20.1083 137.398 20.0123 137.296 19.9589 137.179C19.9163 137.072 19.9056 136.96 19.9269 136.843C19.9589 136.726 20.0123 136.619 20.0869 136.523C20.1723 136.438 20.2683 136.379 20.3749 136.347C20.4923 136.326 20.6096 136.352 20.7269 136.427C21.1963 136.694 21.6443 136.875 22.0709 136.971C22.4976 137.067 22.9029 137.115 23.2869 137.115C24.0443 137.115 24.6096 136.918 24.9829 136.523C25.3669 136.139 25.5589 135.574 25.5589 134.827V133.099H25.7029C25.5536 133.696 25.2176 134.171 24.6949 134.523C24.1829 134.875 23.5856 135.051 22.9029 135.051C22.1989 135.051 21.5856 134.891 21.0629 134.571C20.5403 134.24 20.1349 133.787 19.8469 133.211C19.5589 132.624 19.4149 131.947 19.4149 131.179C19.4149 130.592 19.4949 130.064 19.6549 129.595C19.8256 129.115 20.0603 128.71 20.3589 128.379C20.6683 128.038 21.0363 127.776 21.4629 127.595C21.8896 127.403 22.3696 127.307 22.9029 127.307C23.5963 127.307 24.1989 127.483 24.7109 127.835C25.2229 128.187 25.5536 128.662 25.7029 129.259L25.5269 129.483V128.075C25.5269 127.83 25.5909 127.648 25.7189 127.531C25.8469 127.403 26.0283 127.339 26.2629 127.339C26.4869 127.339 26.6629 127.403 26.7909 127.531C26.9189 127.648 26.9829 127.83 26.9829 128.075V134.635C26.9829 135.84 26.6736 136.747 26.0549 137.355C25.4469 137.963 24.5563 138.267 23.3829 138.267ZM23.2229 133.899C23.7029 133.899 24.1136 133.792 24.4549 133.579C24.8069 133.355 25.0736 133.04 25.2549 132.635C25.4469 132.219 25.5429 131.734 25.5429 131.179C25.5429 130.336 25.3349 129.675 24.9189 129.195C24.5029 128.704 23.9376 128.459 23.2229 128.459C22.7429 128.459 22.3269 128.571 21.9749 128.795C21.6336 129.008 21.3669 129.318 21.1749 129.723C20.9829 130.128 20.8869 130.614 20.8869 131.179C20.8869 132.011 21.0949 132.672 21.5109 133.163C21.9376 133.654 22.5083 133.899 23.2229 133.899ZM32.1004 135.387C31.4711 135.387 30.9431 135.27 30.5164 135.035C30.1004 134.8 29.7911 134.454 29.5884 133.995C29.3858 133.536 29.2844 132.96 29.2844 132.267V128.075C29.2844 127.83 29.3431 127.648 29.4604 127.531C29.5884 127.403 29.7698 127.339 30.0044 127.339C30.2391 127.339 30.4204 127.403 30.5484 127.531C30.6764 127.648 30.7404 127.83 30.7404 128.075V132.267C30.7404 132.928 30.8738 133.419 31.1404 133.739C31.4071 134.048 31.8284 134.203 32.4044 134.203C33.0444 134.203 33.5618 133.99 33.9564 133.563C34.3618 133.136 34.5644 132.571 34.5644 131.867V128.075C34.5644 127.83 34.6231 127.648 34.7404 127.531C34.8684 127.403 35.0498 127.339 35.2844 127.339C35.5191 127.339 35.7004 127.403 35.8284 127.531C35.9564 127.648 36.0204 127.83 36.0204 128.075V134.603C36.0204 135.104 35.7858 135.355 35.3164 135.355C35.0818 135.355 34.9004 135.291 34.7724 135.163C34.6551 135.035 34.5964 134.848 34.5964 134.603V133.211L34.8044 133.483C34.5911 134.102 34.2444 134.576 33.7644 134.907C33.2951 135.227 32.7404 135.387 32.1004 135.387ZM39.1153 135.355C38.87 135.355 38.6833 135.291 38.5553 135.163C38.4273 135.035 38.3633 134.848 38.3633 134.603V128.075C38.3633 127.83 38.4273 127.648 38.5553 127.531C38.6833 127.403 38.8593 127.339 39.0833 127.339C39.3073 127.339 39.478 127.403 39.5953 127.531C39.7233 127.648 39.7873 127.83 39.7873 128.075V129.307H39.6273C39.798 128.667 40.118 128.182 40.5873 127.851C41.0566 127.52 41.6486 127.334 42.3633 127.291C42.534 127.28 42.6726 127.323 42.7793 127.419C42.886 127.504 42.9446 127.654 42.9553 127.867C42.966 128.07 42.918 128.235 42.8113 128.363C42.7046 128.48 42.5393 128.55 42.3153 128.571L42.0273 128.587C41.3233 128.662 40.7793 128.891 40.3953 129.275C40.022 129.659 39.8353 130.187 39.8353 130.859V134.603C39.8353 134.848 39.7713 135.035 39.6433 135.163C39.526 135.291 39.35 135.355 39.1153 135.355ZM47.4097 135.387C46.6417 135.387 45.975 135.222 45.4097 134.891C44.8444 134.56 44.407 134.091 44.0977 133.483C43.7884 132.875 43.6337 132.16 43.6337 131.339C43.6337 130.72 43.719 130.166 43.8897 129.675C44.071 129.174 44.327 128.747 44.6577 128.395C44.9884 128.043 45.383 127.776 45.8417 127.595C46.311 127.403 46.8337 127.307 47.4097 127.307C48.1777 127.307 48.8444 127.472 49.4097 127.803C49.975 128.134 50.4124 128.603 50.7217 129.211C51.031 129.808 51.1857 130.518 51.1857 131.339C51.1857 131.958 51.095 132.518 50.9137 133.019C50.743 133.52 50.4924 133.947 50.1617 134.299C49.831 134.651 49.431 134.923 48.9617 135.115C48.503 135.296 47.9857 135.387 47.4097 135.387ZM47.4097 134.235C47.879 134.235 48.2844 134.123 48.6257 133.899C48.9777 133.675 49.2444 133.35 49.4257 132.923C49.6177 132.496 49.7137 131.968 49.7137 131.339C49.7137 130.4 49.5057 129.686 49.0897 129.195C48.6737 128.704 48.1137 128.459 47.4097 128.459C46.951 128.459 46.5457 128.571 46.1937 128.795C45.8524 129.008 45.5857 129.328 45.3937 129.755C45.2017 130.182 45.1057 130.71 45.1057 131.339C45.1057 132.278 45.3137 132.998 45.7297 133.499C46.1564 133.99 46.7164 134.235 47.4097 134.235ZM61.6227 135.355C61.3987 135.355 61.2174 135.307 61.0787 135.211C60.94 135.104 60.8227 134.944 60.7267 134.731L56.3907 124.827C56.3054 124.624 56.2787 124.454 56.3107 124.315C56.3534 124.166 56.4334 124.054 56.5507 123.979C56.6787 123.894 56.828 123.851 56.9987 123.851C57.2227 123.851 57.388 123.899 57.4947 123.995C57.612 124.091 57.7134 124.235 57.7987 124.427L61.9267 134.011H61.3667L65.4787 124.427C65.564 124.235 65.6654 124.091 65.7827 123.995C65.9 123.899 66.0654 123.851 66.2787 123.851C66.4494 123.851 66.588 123.894 66.6947 123.979C66.812 124.064 66.8814 124.182 66.9027 124.331C66.9347 124.47 66.9134 124.635 66.8387 124.827L62.4867 134.731C62.4014 134.944 62.2894 135.104 62.1507 135.211C62.0227 135.307 61.8467 135.355 61.6227 135.355ZM69.5208 135.323C69.2968 135.323 69.1208 135.254 68.9928 135.115C68.8648 134.976 68.8008 134.784 68.8008 134.539V128.155C68.8008 127.899 68.8648 127.707 68.9928 127.579C69.1208 127.44 69.2968 127.371 69.5208 127.371C69.7555 127.371 69.9368 127.44 70.0648 127.579C70.1928 127.707 70.2568 127.899 70.2568 128.155V134.539C70.2568 134.784 70.1928 134.976 70.0648 135.115C69.9475 135.254 69.7661 135.323 69.5208 135.323ZM69.5208 125.643C69.2328 125.643 69.0035 125.568 68.8328 125.419C68.6728 125.259 68.5928 125.051 68.5928 124.795C68.5928 124.518 68.6728 124.31 68.8328 124.171C69.0035 124.022 69.2328 123.947 69.5208 123.947C69.8301 123.947 70.0595 124.022 70.2088 124.171C70.3688 124.31 70.4488 124.518 70.4488 124.795C70.4488 125.051 70.3688 125.259 70.2088 125.419C70.0595 125.568 69.8301 125.643 69.5208 125.643ZM75.0777 135.387C74.5444 135.387 74.059 135.28 73.6217 135.067C73.195 134.854 72.859 134.566 72.6137 134.203C72.379 133.84 72.2617 133.435 72.2617 132.987C72.2617 132.411 72.4057 131.958 72.6937 131.627C72.9817 131.296 73.467 131.062 74.1497 130.923C74.8324 130.774 75.7497 130.699 76.9017 130.699H77.6537V131.627H76.9337C76.1124 131.627 75.4617 131.664 74.9817 131.739C74.5124 131.814 74.1817 131.947 73.9897 132.139C73.7977 132.32 73.7017 132.576 73.7017 132.907C73.7017 133.323 73.8457 133.664 74.1337 133.931C74.4324 134.198 74.8377 134.331 75.3497 134.331C75.755 134.331 76.1124 134.235 76.4217 134.043C76.731 133.84 76.9764 133.574 77.1577 133.243C77.339 132.902 77.4297 132.512 77.4297 132.075V130.235C77.4297 129.606 77.3017 129.152 77.0457 128.875C76.7897 128.587 76.3577 128.443 75.7497 128.443C75.3977 128.443 75.035 128.491 74.6617 128.587C74.2884 128.683 73.899 128.832 73.4937 129.035C73.3337 129.11 73.195 129.136 73.0777 129.115C72.9604 129.083 72.8644 129.019 72.7897 128.923C72.7257 128.816 72.6884 128.704 72.6777 128.587C72.6777 128.459 72.7044 128.336 72.7577 128.219C72.8217 128.102 72.9284 128.016 73.0777 127.963C73.547 127.728 74.011 127.563 74.4697 127.467C74.939 127.36 75.3764 127.307 75.7817 127.307C76.475 127.307 77.0457 127.419 77.4937 127.643C77.9417 127.856 78.2777 128.192 78.5017 128.651C78.7257 129.099 78.8377 129.675 78.8377 130.379V134.603C78.8377 134.848 78.779 135.035 78.6617 135.163C78.5444 135.291 78.3737 135.355 78.1497 135.355C77.9364 135.355 77.7657 135.291 77.6377 135.163C77.5204 135.035 77.4617 134.848 77.4617 134.603V133.467H77.6057C77.5204 133.862 77.3604 134.203 77.1257 134.491C76.891 134.779 76.5977 135.003 76.2457 135.163C75.9044 135.312 75.515 135.387 75.0777 135.387ZM84.6329 138.267C84.0569 138.267 83.4969 138.203 82.9529 138.075C82.4196 137.947 81.9343 137.75 81.4969 137.483C81.3583 137.398 81.2623 137.296 81.2089 137.179C81.1663 137.072 81.1556 136.96 81.1769 136.843C81.2089 136.726 81.2623 136.619 81.3369 136.523C81.4223 136.438 81.5183 136.379 81.6249 136.347C81.7423 136.326 81.8596 136.352 81.9769 136.427C82.4463 136.694 82.8943 136.875 83.3209 136.971C83.7476 137.067 84.1529 137.115 84.5369 137.115C85.2943 137.115 85.8596 136.918 86.2329 136.523C86.6169 136.139 86.8089 135.574 86.8089 134.827V133.099H86.9529C86.8036 133.696 86.4676 134.171 85.9449 134.523C85.4329 134.875 84.8356 135.051 84.1529 135.051C83.4489 135.051 82.8356 134.891 82.3129 134.571C81.7903 134.24 81.3849 133.787 81.0969 133.211C80.8089 132.624 80.6649 131.947 80.6649 131.179C80.6649 130.592 80.7449 130.064 80.9049 129.595C81.0756 129.115 81.3103 128.71 81.6089 128.379C81.9183 128.038 82.2863 127.776 82.7129 127.595C83.1396 127.403 83.6196 127.307 84.1529 127.307C84.8463 127.307 85.4489 127.483 85.9609 127.835C86.4729 128.187 86.8036 128.662 86.9529 129.259L86.7769 129.483V128.075C86.7769 127.83 86.8409 127.648 86.9689 127.531C87.0969 127.403 87.2783 127.339 87.5129 127.339C87.7369 127.339 87.9129 127.403 88.0409 127.531C88.1689 127.648 88.2329 127.83 88.2329 128.075V134.635C88.2329 135.84 87.9236 136.747 87.3049 137.355C86.6969 137.963 85.8063 138.267 84.6329 138.267ZM84.4729 133.899C84.9529 133.899 85.3636 133.792 85.7049 133.579C86.0569 133.355 86.3236 133.04 86.5049 132.635C86.6969 132.219 86.7929 131.734 86.7929 131.179C86.7929 130.336 86.5849 129.675 86.1689 129.195C85.7529 128.704 85.1876 128.459 84.4729 128.459C83.9929 128.459 83.5769 128.571 83.2249 128.795C82.8836 129.008 82.6169 129.318 82.4249 129.723C82.2329 130.128 82.1369 130.614 82.1369 131.179C82.1369 132.011 82.3449 132.672 82.7609 133.163C83.1876 133.654 83.7583 133.899 84.4729 133.899ZM94.1664 135.387C93.3238 135.387 92.5984 135.227 91.9904 134.907C91.3931 134.576 90.9291 134.112 90.5984 133.515C90.2678 132.907 90.1024 132.192 90.1024 131.371C90.1024 130.56 90.2624 129.851 90.5824 129.243C90.9131 128.635 91.3611 128.16 91.9264 127.819C92.5024 127.478 93.1584 127.307 93.8944 127.307C94.4171 127.307 94.8864 127.398 95.3024 127.579C95.7291 127.75 96.0918 128 96.3904 128.331C96.6891 128.662 96.9131 129.067 97.0624 129.547C97.2224 130.016 97.3024 130.55 97.3024 131.147C97.3024 131.318 97.2491 131.451 97.1424 131.547C97.0464 131.632 96.9024 131.675 96.7104 131.675H91.2384V130.747H96.3424L96.0704 130.971C96.0704 130.416 95.9851 129.947 95.8144 129.563C95.6544 129.168 95.4144 128.87 95.0944 128.667C94.7851 128.464 94.3958 128.363 93.9264 128.363C93.4144 128.363 92.9771 128.486 92.6144 128.731C92.2518 128.966 91.9744 129.302 91.7824 129.739C91.5904 130.166 91.4944 130.662 91.4944 131.227V131.323C91.4944 132.283 91.7238 133.008 92.1824 133.499C92.6411 133.99 93.3024 134.235 94.1664 134.235C94.5078 134.235 94.8544 134.192 95.2064 134.107C95.5691 134.022 95.9158 133.867 96.2464 133.643C96.4064 133.547 96.5504 133.504 96.6784 133.515C96.8171 133.515 96.9291 133.558 97.0144 133.643C97.0998 133.718 97.1531 133.814 97.1744 133.931C97.1958 134.038 97.1798 134.155 97.1264 134.283C97.0731 134.411 96.9718 134.523 96.8224 134.619C96.4704 134.864 96.0491 135.056 95.5584 135.195C95.0784 135.323 94.6144 135.387 94.1664 135.387ZM99.8653 135.355C99.6413 135.355 99.4653 135.291 99.3373 135.163C99.2093 135.035 99.1453 134.848 99.1453 134.603V128.075C99.1453 127.83 99.2093 127.648 99.3373 127.531C99.4653 127.403 99.6413 127.339 99.8653 127.339C100.089 127.339 100.26 127.403 100.377 127.531C100.505 127.648 100.569 127.83 100.569 128.075V129.435L100.393 129.147C100.596 128.56 100.921 128.107 101.369 127.787C101.828 127.467 102.372 127.307 103.001 127.307C103.663 127.307 104.196 127.467 104.601 127.787C105.007 128.096 105.279 128.571 105.417 129.211H105.193C105.385 128.624 105.727 128.16 106.217 127.819C106.719 127.478 107.3 127.307 107.961 127.307C108.548 127.307 109.028 127.424 109.401 127.659C109.785 127.883 110.073 128.224 110.265 128.683C110.457 129.131 110.553 129.707 110.553 130.411V134.603C110.553 134.848 110.489 135.035 110.361 135.163C110.233 135.291 110.057 135.355 109.833 135.355C109.599 135.355 109.417 135.291 109.289 135.163C109.161 135.035 109.097 134.848 109.097 134.603V130.475C109.097 129.792 108.98 129.291 108.745 128.971C108.511 128.651 108.116 128.491 107.561 128.491C106.953 128.491 106.468 128.704 106.105 129.131C105.753 129.547 105.577 130.123 105.577 130.859V134.603C105.577 134.848 105.513 135.035 105.385 135.163C105.268 135.291 105.092 135.355 104.857 135.355C104.623 135.355 104.441 135.291 104.313 135.163C104.185 135.035 104.121 134.848 104.121 134.603V130.475C104.121 129.792 104.004 129.291 103.769 128.971C103.535 128.651 103.14 128.491 102.585 128.491C101.977 128.491 101.492 128.704 101.129 129.131C100.777 129.547 100.601 130.123 100.601 130.859V134.603C100.601 135.104 100.356 135.355 99.8653 135.355Z" fill="black"/>
</svg>
