<svg width="143" height="142" viewBox="0 0 143 142" fill="none" xmlns="http://www.w3.org/2000/svg">
<path d="M71.5467 105.093C100.567 105.093 124.093 81.5674 124.093 52.5467C124.093 23.5259 100.567 0 71.5467 0C42.5259 0 19 23.5259 19 52.5467C19 81.5674 42.5259 105.093 71.5467 105.093Z" fill="#A472B0"/>
<path d="M101.204 47.3053C101.071 47.7034 101.005 48.1014 100.872 48.4332C100.673 49.163 100.275 49.4947 99.4787 49.4947C97.9527 49.4947 96.3604 49.4947 94.8344 49.4947C94.7017 49.4947 94.5026 49.4947 94.2372 49.5611C94.3699 49.6937 94.4363 49.7601 94.5026 49.8264C95.7632 50.4236 96.2276 51.4188 96.2276 52.7457C96.2276 56.7265 96.2276 60.7073 96.2276 64.6881C96.2276 66.5458 96.2276 68.4035 96.2276 70.3276C96.2276 71.6545 95.7633 72.119 94.4363 72.119C92.5123 72.119 90.5218 72.119 88.5978 72.119C87.3372 72.119 86.8064 71.6545 86.8064 70.3276C86.8064 68.5362 86.8064 66.7449 86.8064 64.9535C86.8064 64.7545 86.8064 64.5554 86.8064 64.29C76.589 64.29 66.3716 64.29 56.1542 64.29C56.1542 65.0199 56.1542 65.7497 56.1542 66.4131C56.1542 67.7401 56.1542 69.067 56.1542 70.3939C56.1542 71.5218 55.6234 72.0526 54.4955 72.0526C52.4388 72.0526 50.4484 72.0526 48.3916 72.0526C47.2637 72.0526 46.733 71.5218 46.733 70.3939C46.733 64.4891 46.733 58.5179 46.733 52.613C46.733 51.2861 47.2637 50.3572 48.458 49.8264C48.5243 49.7601 48.5907 49.6937 48.7897 49.5611C48.458 49.5611 48.3253 49.4947 48.1262 49.4947C46.6002 49.4947 45.1406 49.4947 43.6147 49.4947C42.7521 49.4947 42.4204 49.2293 42.155 48.4332C41.7569 47.2389 41.8233 46.0447 42.2214 44.8504C42.4204 44.2533 42.8185 43.9879 43.4156 43.9879C45.1406 43.9879 46.8657 43.9879 48.657 43.9879C49.3205 43.9879 49.6522 44.3197 49.9176 44.9168C49.9839 45.1822 50.0503 45.3812 50.183 45.7793C50.382 45.2485 50.5811 44.7841 50.7138 44.386C51.709 41.5994 52.7042 38.8129 53.6994 36.0927C54.4292 34.1023 55.8225 33.1071 57.9456 33.1071C66.9687 33.1071 76.0582 33.1071 85.0814 33.1071C87.2045 33.1071 88.6641 34.1023 89.3939 36.159C90.5218 39.211 91.5834 42.1966 92.7113 45.2485C92.7776 45.4476 92.844 45.5803 92.9103 45.7793C92.9767 45.7129 92.9767 45.6466 93.043 45.5802C93.5738 44.0543 93.5738 44.0543 95.1661 44.0543C96.6257 44.0543 98.019 44.0543 99.4787 44.0543C100.341 44.0543 100.673 44.3197 100.938 45.1822C101.071 45.5802 101.137 45.912 101.27 46.3101C101.204 46.5091 101.204 46.9072 101.204 47.3053ZM54.0311 49.5611C65.7081 49.5611 77.3852 49.5611 89.0622 49.5611C88.9959 49.4284 88.9959 49.362 88.9959 49.2293C87.6689 45.5802 86.342 41.9312 85.0814 38.2821C84.9487 37.884 84.6833 37.884 84.3516 37.884C75.8592 37.884 67.3005 37.884 58.8081 37.884C58.41 37.884 58.2109 38.0167 58.0782 38.4148C56.8177 41.9312 55.5571 45.4476 54.2965 48.9639C54.1638 49.163 54.0975 49.2957 54.0311 49.5611ZM56.1542 53.4092C55.2254 53.4092 54.3628 53.4092 53.434 53.4092C52.107 53.4092 51.1782 54.338 51.1782 55.5323C51.1782 56.7929 52.0407 57.7217 53.3676 57.7881C55.2253 57.8544 57.0831 57.8544 58.9408 57.7881C60.2677 57.7881 61.1966 56.7929 61.1302 55.5323C61.1302 54.338 60.135 53.4755 58.8081 53.4092C57.9456 53.4092 57.0831 53.4092 56.1542 53.4092ZM86.9391 53.4092C86.0102 53.4092 85.1478 53.4092 84.2189 53.4092C82.9583 53.4092 81.9631 54.2717 81.9631 55.4659C81.8967 56.7265 82.7593 57.7217 84.0862 57.7217C86.0103 57.7881 87.9343 57.7881 89.792 57.7217C91.119 57.6554 91.9815 56.6602 91.9151 55.4659C91.8488 54.2717 90.9199 53.4092 89.6593 53.4092C88.7305 53.4092 87.868 53.4092 86.9391 53.4092Z" fill="white"/>
<path d="M1.6375 135.355C1.4455 135.355 1.29083 135.312 1.1735 135.227C1.06683 135.142 1.00283 135.024 0.9815 134.875C0.960167 134.726 0.992167 134.56 1.0775 134.379L5.4455 124.491C5.5415 124.267 5.66417 124.107 5.8135 124.011C5.96283 123.904 6.12817 123.851 6.3095 123.851C6.49083 123.851 6.65083 123.904 6.7895 124.011C6.93883 124.107 7.06683 124.267 7.1735 124.491L11.5415 134.379C11.6268 134.56 11.6588 134.731 11.6375 134.891C11.6268 135.04 11.5682 135.158 11.4615 135.243C11.3548 135.318 11.2055 135.355 11.0135 135.355C10.8002 135.355 10.6295 135.302 10.5015 135.195C10.3735 135.078 10.2615 134.912 10.1655 134.699L9.0295 132.043L9.7175 132.427H2.8695L3.5575 132.043L2.4215 134.699C2.3255 134.934 2.21883 135.104 2.1015 135.211C1.98417 135.307 1.8295 135.355 1.6375 135.355ZM6.2775 125.643L3.7815 131.547L3.3975 131.211H9.1895L8.8215 131.547L6.3095 125.643H6.2775ZM15.7879 135.387C14.9879 135.387 14.3799 135.152 13.9639 134.683C13.5479 134.203 13.3399 133.515 13.3399 132.619V124.587C13.3399 124.342 13.4039 124.16 13.5319 124.043C13.6599 123.915 13.8359 123.851 14.0599 123.851C14.2945 123.851 14.4759 123.915 14.6039 124.043C14.7319 124.16 14.7959 124.342 14.7959 124.587V132.507C14.7959 133.062 14.9079 133.478 15.1319 133.755C15.3665 134.022 15.6972 134.155 16.1239 134.155C16.2199 134.155 16.3052 134.155 16.3799 134.155C16.4545 134.144 16.5292 134.134 16.6039 134.123C16.7212 134.112 16.8065 134.144 16.8599 134.219C16.9132 134.294 16.9399 134.443 16.9399 134.667C16.9399 134.87 16.8919 135.03 16.7959 135.147C16.7105 135.254 16.5665 135.323 16.3639 135.355C16.2679 135.366 16.1719 135.371 16.0759 135.371C15.9799 135.382 15.8839 135.387 15.7879 135.387ZM20.9364 135.387C20.307 135.387 19.779 135.27 19.3524 135.035C18.9364 134.8 18.627 134.454 18.4244 133.995C18.2217 133.536 18.1204 132.96 18.1204 132.267V128.075C18.1204 127.83 18.179 127.648 18.2964 127.531C18.4244 127.403 18.6057 127.339 18.8404 127.339C19.075 127.339 19.2564 127.403 19.3844 127.531C19.5124 127.648 19.5764 127.83 19.5764 128.075V132.267C19.5764 132.928 19.7097 133.419 19.9764 133.739C20.243 134.048 20.6644 134.203 21.2404 134.203C21.8804 134.203 22.3977 133.99 22.7924 133.563C23.1977 133.136 23.4004 132.571 23.4004 131.867V128.075C23.4004 127.83 23.459 127.648 23.5764 127.531C23.7044 127.403 23.8857 127.339 24.1204 127.339C24.355 127.339 24.5364 127.403 24.6644 127.531C24.7924 127.648 24.8564 127.83 24.8564 128.075V134.603C24.8564 135.104 24.6217 135.355 24.1524 135.355C23.9177 135.355 23.7364 135.291 23.6084 135.163C23.491 135.035 23.4324 134.848 23.4324 134.603V133.211L23.6404 133.483C23.427 134.102 23.0804 134.576 22.6004 134.907C22.131 135.227 21.5764 135.387 20.9364 135.387ZM30.7033 138.267C30.1273 138.267 29.5673 138.203 29.0233 138.075C28.4899 137.947 28.0046 137.75 27.5673 137.483C27.4286 137.398 27.3326 137.296 27.2793 137.179C27.2366 137.072 27.2259 136.96 27.2473 136.843C27.2793 136.726 27.3326 136.619 27.4073 136.523C27.4926 136.438 27.5886 136.379 27.6953 136.347C27.8126 136.326 27.9299 136.352 28.0473 136.427C28.5166 136.694 28.9646 136.875 29.3913 136.971C29.8179 137.067 30.2233 137.115 30.6073 137.115C31.3646 137.115 31.9299 136.918 32.3033 136.523C32.6873 136.139 32.8793 135.574 32.8793 134.827V133.099H33.0233C32.8739 133.696 32.5379 134.171 32.0153 134.523C31.5033 134.875 30.9059 135.051 30.2233 135.051C29.5193 135.051 28.9059 134.891 28.3832 134.571C27.8606 134.24 27.4553 133.787 27.1673 133.211C26.8793 132.624 26.7353 131.947 26.7353 131.179C26.7353 130.592 26.8153 130.064 26.9753 129.595C27.1459 129.115 27.3806 128.71 27.6793 128.379C27.9886 128.038 28.3566 127.776 28.7833 127.595C29.2099 127.403 29.6899 127.307 30.2233 127.307C30.9166 127.307 31.5193 127.483 32.0313 127.835C32.5433 128.187 32.8739 128.662 33.0233 129.259L32.8473 129.483V128.075C32.8473 127.83 32.9113 127.648 33.0393 127.531C33.1673 127.403 33.3486 127.339 33.5833 127.339C33.8073 127.339 33.9833 127.403 34.1112 127.531C34.2393 127.648 34.3033 127.83 34.3033 128.075V134.635C34.3033 135.84 33.9939 136.747 33.3753 137.355C32.7673 137.963 31.8766 138.267 30.7033 138.267ZM30.5433 133.899C31.0233 133.899 31.4339 133.792 31.7753 133.579C32.1273 133.355 32.3939 133.04 32.5753 132.635C32.7673 132.219 32.8633 131.734 32.8633 131.179C32.8633 130.336 32.6553 129.675 32.2393 129.195C31.8233 128.704 31.2579 128.459 30.5433 128.459C30.0633 128.459 29.6473 128.571 29.2953 128.795C28.9539 129.008 28.6873 129.318 28.4953 129.723C28.3033 130.128 28.2073 130.614 28.2073 131.179C28.2073 132.011 28.4153 132.672 28.8313 133.163C29.2579 133.654 29.8286 133.899 30.5433 133.899ZM39.4208 135.387C38.7914 135.387 38.2634 135.27 37.8368 135.035C37.4208 134.8 37.1114 134.454 36.9088 133.995C36.7061 133.536 36.6048 132.96 36.6048 132.267V128.075C36.6048 127.83 36.6634 127.648 36.7808 127.531C36.9088 127.403 37.0901 127.339 37.3248 127.339C37.5594 127.339 37.7408 127.403 37.8688 127.531C37.9968 127.648 38.0608 127.83 38.0608 128.075V132.267C38.0608 132.928 38.1941 133.419 38.4608 133.739C38.7274 134.048 39.1488 134.203 39.7248 134.203C40.3648 134.203 40.8821 133.99 41.2768 133.563C41.6821 133.136 41.8848 132.571 41.8848 131.867V128.075C41.8848 127.83 41.9434 127.648 42.0608 127.531C42.1888 127.403 42.3701 127.339 42.6048 127.339C42.8394 127.339 43.0208 127.403 43.1488 127.531C43.2768 127.648 43.3408 127.83 43.3408 128.075V134.603C43.3408 135.104 43.1061 135.355 42.6368 135.355C42.4021 135.355 42.2208 135.291 42.0928 135.163C41.9754 135.035 41.9168 134.848 41.9168 134.603V133.211L42.1248 133.483C41.9114 134.102 41.5648 134.576 41.0848 134.907C40.6154 135.227 40.0608 135.387 39.4208 135.387ZM49.2836 135.387C48.441 135.387 47.7156 135.227 47.1076 134.907C46.5103 134.576 46.0463 134.112 45.7156 133.515C45.385 132.907 45.2196 132.192 45.2196 131.371C45.2196 130.56 45.3796 129.851 45.6996 129.243C46.0303 128.635 46.4783 128.16 47.0436 127.819C47.6196 127.478 48.2756 127.307 49.0116 127.307C49.5343 127.307 50.0036 127.398 50.4196 127.579C50.8463 127.75 51.209 128 51.5076 128.331C51.8063 128.662 52.0303 129.067 52.1796 129.547C52.3396 130.016 52.4196 130.55 52.4196 131.147C52.4196 131.318 52.3663 131.451 52.2596 131.547C52.1636 131.632 52.0196 131.675 51.8276 131.675H46.3556V130.747H51.4596L51.1876 130.971C51.1876 130.416 51.1023 129.947 50.9316 129.563C50.7716 129.168 50.5316 128.87 50.2116 128.667C49.9023 128.464 49.513 128.363 49.0436 128.363C48.5316 128.363 48.0943 128.486 47.7316 128.731C47.369 128.966 47.0916 129.302 46.8996 129.739C46.7076 130.166 46.6116 130.662 46.6116 131.227V131.323C46.6116 132.283 46.841 133.008 47.2996 133.499C47.7583 133.99 48.4196 134.235 49.2836 134.235C49.625 134.235 49.9716 134.192 50.3236 134.107C50.6863 134.022 51.033 133.867 51.3636 133.643C51.5236 133.547 51.6676 133.504 51.7956 133.515C51.9343 133.515 52.0463 133.558 52.1316 133.643C52.217 133.718 52.2703 133.814 52.2916 133.931C52.313 134.038 52.297 134.155 52.2436 134.283C52.1903 134.411 52.089 134.523 51.9396 134.619C51.5876 134.864 51.1663 135.056 50.6756 135.195C50.1956 135.323 49.7316 135.387 49.2836 135.387ZM56.6785 135.387C55.8785 135.387 55.2705 135.152 54.8545 134.683C54.4385 134.203 54.2305 133.515 54.2305 132.619V124.587C54.2305 124.342 54.2945 124.16 54.4225 124.043C54.5505 123.915 54.7265 123.851 54.9505 123.851C55.1852 123.851 55.3665 123.915 55.4945 124.043C55.6225 124.16 55.6865 124.342 55.6865 124.587V132.507C55.6865 133.062 55.7985 133.478 56.0225 133.755C56.2572 134.022 56.5878 134.155 57.0145 134.155C57.1105 134.155 57.1958 134.155 57.2705 134.155C57.3452 134.144 57.4198 134.134 57.4945 134.123C57.6118 134.112 57.6972 134.144 57.7505 134.219C57.8038 134.294 57.8305 134.443 57.8305 134.667C57.8305 134.87 57.7825 135.03 57.6865 135.147C57.6012 135.254 57.4572 135.323 57.2545 135.355C57.1585 135.366 57.0625 135.371 56.9665 135.371C56.8705 135.382 56.7745 135.387 56.6785 135.387ZM66.1909 135.387C65.5082 135.387 64.9055 135.227 64.3829 134.907C63.8709 134.576 63.4709 134.107 63.1829 133.499C62.8949 132.88 62.7509 132.16 62.7509 131.339C62.7509 130.507 62.8895 129.792 63.1669 129.195C63.4549 128.587 63.8549 128.123 64.3669 127.803C64.8895 127.472 65.4975 127.307 66.1909 127.307C66.8842 127.307 67.4815 127.483 67.9829 127.835C68.4842 128.176 68.8202 128.635 68.9909 129.211H68.8149V124.587C68.8149 124.342 68.8735 124.16 68.9909 124.043C69.1189 123.915 69.3002 123.851 69.5349 123.851C69.7695 123.851 69.9509 123.915 70.0789 124.043C70.2069 124.16 70.2709 124.342 70.2709 124.587V134.603C70.2709 134.848 70.2069 135.035 70.0789 135.163C69.9509 135.291 69.7695 135.355 69.5349 135.355C69.3109 135.355 69.1349 135.291 69.0069 135.163C68.8789 135.035 68.8149 134.848 68.8149 134.603V133.147L68.9909 133.435C68.8309 134.032 68.4949 134.507 67.9829 134.859C67.4815 135.211 66.8842 135.387 66.1909 135.387ZM66.5269 134.235C66.9962 134.235 67.4015 134.123 67.7429 133.899C68.0949 133.675 68.3615 133.35 68.5429 132.923C68.7349 132.496 68.8309 131.968 68.8309 131.339C68.8309 130.4 68.6229 129.686 68.2069 129.195C67.7909 128.704 67.2309 128.459 66.5269 128.459C66.0682 128.459 65.6629 128.571 65.3109 128.795C64.9695 129.008 64.7029 129.328 64.5109 129.755C64.3189 130.182 64.2229 130.71 64.2229 131.339C64.2229 132.278 64.4309 132.998 64.8469 133.499C65.2735 133.99 65.8335 134.235 66.5269 134.235ZM76.2055 135.387C75.3628 135.387 74.6375 135.227 74.0295 134.907C73.4322 134.576 72.9682 134.112 72.6375 133.515C72.3068 132.907 72.1415 132.192 72.1415 131.371C72.1415 130.56 72.3015 129.851 72.6215 129.243C72.9522 128.635 73.4002 128.16 73.9655 127.819C74.5415 127.478 75.1975 127.307 75.9335 127.307C76.4562 127.307 76.9255 127.398 77.3415 127.579C77.7682 127.75 78.1308 128 78.4295 128.331C78.7282 128.662 78.9522 129.067 79.1015 129.547C79.2615 130.016 79.3415 130.55 79.3415 131.147C79.3415 131.318 79.2882 131.451 79.1815 131.547C79.0855 131.632 78.9415 131.675 78.7495 131.675H73.2775V130.747H78.3815L78.1095 130.971C78.1095 130.416 78.0242 129.947 77.8535 129.563C77.6935 129.168 77.4535 128.87 77.1335 128.667C76.8242 128.464 76.4348 128.363 75.9655 128.363C75.4535 128.363 75.0162 128.486 74.6535 128.731C74.2908 128.966 74.0135 129.302 73.8215 129.739C73.6295 130.166 73.5335 130.662 73.5335 131.227V131.323C73.5335 132.283 73.7628 133.008 74.2215 133.499C74.6802 133.99 75.3415 134.235 76.2055 134.235C76.5468 134.235 76.8935 134.192 77.2455 134.107C77.6082 134.022 77.9548 133.867 78.2855 133.643C78.4455 133.547 78.5895 133.504 78.7175 133.515C78.8562 133.515 78.9682 133.558 79.0535 133.643C79.1388 133.718 79.1922 133.814 79.2135 133.931C79.2348 134.038 79.2188 134.155 79.1655 134.283C79.1122 134.411 79.0108 134.523 78.8615 134.619C78.5095 134.864 78.0882 135.056 77.5975 135.195C77.1175 135.323 76.6535 135.387 76.2055 135.387ZM88.2843 135.355C88.0816 135.355 87.9056 135.302 87.7563 135.195C87.6069 135.088 87.4789 134.918 87.3723 134.683L84.6523 128.347C84.5776 128.166 84.5509 128 84.5723 127.851C84.5936 127.702 84.6629 127.579 84.7803 127.483C84.9083 127.387 85.0789 127.339 85.2923 127.339C85.4736 127.339 85.6176 127.382 85.7243 127.467C85.8309 127.552 85.9323 127.702 86.0283 127.915L88.5403 134.107H88.0923L90.6683 127.915C90.7536 127.702 90.8496 127.552 90.9563 127.467C91.0736 127.382 91.2336 127.339 91.4363 127.339C91.6176 127.339 91.7563 127.387 91.8523 127.483C91.9589 127.579 92.0229 127.702 92.0443 127.851C92.0656 128 92.0336 128.16 91.9483 128.331L89.2123 134.683C89.1163 134.918 88.9883 135.088 88.8283 135.195C88.6789 135.302 88.4976 135.355 88.2843 135.355ZM97.0805 135.387C96.2378 135.387 95.5125 135.227 94.9045 134.907C94.3072 134.576 93.8432 134.112 93.5125 133.515C93.1818 132.907 93.0165 132.192 93.0165 131.371C93.0165 130.56 93.1765 129.851 93.4965 129.243C93.8272 128.635 94.2752 128.16 94.8405 127.819C95.4165 127.478 96.0725 127.307 96.8085 127.307C97.3312 127.307 97.8005 127.398 98.2165 127.579C98.6432 127.75 99.0058 128 99.3045 128.331C99.6032 128.662 99.8272 129.067 99.9765 129.547C100.137 130.016 100.217 130.55 100.217 131.147C100.217 131.318 100.163 131.451 100.057 131.547C99.9605 131.632 99.8165 131.675 99.6245 131.675H94.1525V130.747H99.2565L98.9845 130.971C98.9845 130.416 98.8992 129.947 98.7285 129.563C98.5685 129.168 98.3285 128.87 98.0085 128.667C97.6992 128.464 97.3098 128.363 96.8405 128.363C96.3285 128.363 95.8912 128.486 95.5285 128.731C95.1658 128.966 94.8885 129.302 94.6965 129.739C94.5045 130.166 94.4085 130.662 94.4085 131.227V131.323C94.4085 132.283 94.6378 133.008 95.0965 133.499C95.5552 133.99 96.2165 134.235 97.0805 134.235C97.4218 134.235 97.7685 134.192 98.1205 134.107C98.4832 134.022 98.8298 133.867 99.1605 133.643C99.3205 133.547 99.4645 133.504 99.5925 133.515C99.7312 133.515 99.8432 133.558 99.9285 133.643C100.014 133.718 100.067 133.814 100.089 133.931C100.11 134.038 100.094 134.155 100.041 134.283C99.9872 134.411 99.8858 134.523 99.7365 134.619C99.3845 134.864 98.9632 135.056 98.4725 135.195C97.9925 135.323 97.5285 135.387 97.0805 135.387ZM102.747 135.323C102.523 135.323 102.347 135.254 102.219 135.115C102.091 134.976 102.027 134.784 102.027 134.539V128.155C102.027 127.899 102.091 127.707 102.219 127.579C102.347 127.44 102.523 127.371 102.747 127.371C102.982 127.371 103.163 127.44 103.291 127.579C103.419 127.707 103.483 127.899 103.483 128.155V134.539C103.483 134.784 103.419 134.976 103.291 135.115C103.174 135.254 102.993 135.323 102.747 135.323ZM103.323 126.331C103.238 126.448 103.137 126.518 103.019 126.539C102.913 126.56 102.806 126.544 102.699 126.491C102.593 126.427 102.518 126.342 102.475 126.235C102.433 126.128 102.443 126.006 102.507 125.867L103.819 123.323C103.894 123.152 103.995 123.046 104.123 123.003C104.251 122.95 104.379 122.939 104.507 122.971C104.646 123.003 104.763 123.067 104.859 123.163C104.955 123.248 105.009 123.36 105.019 123.499C105.041 123.627 105.009 123.76 104.923 123.899L103.323 126.331ZM109.2 135.387C108.411 135.387 107.728 135.222 107.152 134.891C106.576 134.55 106.134 134.075 105.824 133.467C105.515 132.848 105.36 132.123 105.36 131.291C105.36 130.672 105.446 130.118 105.616 129.627C105.798 129.136 106.054 128.72 106.384 128.379C106.715 128.027 107.115 127.76 107.584 127.579C108.064 127.398 108.603 127.307 109.2 127.307C109.574 127.307 109.968 127.366 110.384 127.483C110.8 127.6 111.184 127.792 111.536 128.059C111.654 128.144 111.728 128.246 111.76 128.363C111.792 128.47 111.792 128.582 111.76 128.699C111.739 128.816 111.686 128.918 111.6 129.003C111.526 129.078 111.424 129.12 111.296 129.131C111.179 129.142 111.051 129.104 110.912 129.019C110.656 128.827 110.384 128.688 110.096 128.603C109.819 128.518 109.552 128.475 109.296 128.475C108.902 128.475 108.55 128.539 108.24 128.667C107.942 128.795 107.686 128.982 107.472 129.227C107.27 129.462 107.115 129.755 107.008 130.107C106.902 130.448 106.848 130.848 106.848 131.307C106.848 132.214 107.062 132.928 107.488 133.451C107.915 133.963 108.518 134.219 109.296 134.219C109.552 134.219 109.819 134.182 110.096 134.107C110.374 134.022 110.646 133.883 110.912 133.691C111.051 133.606 111.179 133.574 111.296 133.595C111.414 133.606 111.51 133.654 111.584 133.739C111.67 133.814 111.723 133.91 111.744 134.027C111.766 134.134 111.755 134.246 111.712 134.363C111.68 134.48 111.606 134.576 111.488 134.651C111.147 134.907 110.774 135.094 110.368 135.211C109.963 135.328 109.574 135.387 109.2 135.387ZM116.046 135.387C115.416 135.387 114.888 135.27 114.462 135.035C114.046 134.8 113.736 134.454 113.534 133.995C113.331 133.536 113.23 132.96 113.23 132.267V128.075C113.23 127.83 113.288 127.648 113.406 127.531C113.534 127.403 113.715 127.339 113.95 127.339C114.184 127.339 114.366 127.403 114.494 127.531C114.622 127.648 114.686 127.83 114.686 128.075V132.267C114.686 132.928 114.819 133.419 115.086 133.739C115.352 134.048 115.774 134.203 116.35 134.203C116.99 134.203 117.507 133.99 117.902 133.563C118.307 133.136 118.51 132.571 118.51 131.867V128.075C118.51 127.83 118.568 127.648 118.686 127.531C118.814 127.403 118.995 127.339 119.23 127.339C119.464 127.339 119.646 127.403 119.774 127.531C119.902 127.648 119.966 127.83 119.966 128.075V134.603C119.966 135.104 119.731 135.355 119.262 135.355C119.027 135.355 118.846 135.291 118.718 135.163C118.6 135.035 118.542 134.848 118.542 134.603V133.211L118.75 133.483C118.536 134.102 118.19 134.576 117.71 134.907C117.24 135.227 116.686 135.387 116.046 135.387ZM124.757 135.387C123.957 135.387 123.349 135.152 122.933 134.683C122.517 134.203 122.309 133.515 122.309 132.619V124.587C122.309 124.342 122.373 124.16 122.501 124.043C122.629 123.915 122.805 123.851 123.029 123.851C123.263 123.851 123.445 123.915 123.573 124.043C123.701 124.16 123.765 124.342 123.765 124.587V132.507C123.765 133.062 123.877 133.478 124.101 133.755C124.335 134.022 124.666 134.155 125.093 134.155C125.189 134.155 125.274 134.155 125.349 134.155C125.423 134.144 125.498 134.134 125.573 134.123C125.69 134.112 125.775 134.144 125.829 134.219C125.882 134.294 125.909 134.443 125.909 134.667C125.909 134.87 125.861 135.03 125.765 135.147C125.679 135.254 125.535 135.323 125.333 135.355C125.237 135.366 125.141 135.371 125.045 135.371C124.949 135.382 124.853 135.387 124.757 135.387ZM130.355 135.387C129.587 135.387 128.92 135.222 128.355 134.891C127.79 134.56 127.352 134.091 127.043 133.483C126.734 132.875 126.579 132.16 126.579 131.339C126.579 130.72 126.664 130.166 126.835 129.675C127.016 129.174 127.272 128.747 127.603 128.395C127.934 128.043 128.328 127.776 128.787 127.595C129.256 127.403 129.779 127.307 130.355 127.307C131.123 127.307 131.79 127.472 132.355 127.803C132.92 128.134 133.358 128.603 133.667 129.211C133.976 129.808 134.131 130.518 134.131 131.339C134.131 131.958 134.04 132.518 133.859 133.019C133.688 133.52 133.438 133.947 133.107 134.299C132.776 134.651 132.376 134.923 131.907 135.115C131.448 135.296 130.931 135.387 130.355 135.387ZM130.355 134.235C130.824 134.235 131.23 134.123 131.571 133.899C131.923 133.675 132.19 133.35 132.371 132.923C132.563 132.496 132.659 131.968 132.659 131.339C132.659 130.4 132.451 129.686 132.035 129.195C131.619 128.704 131.059 128.459 130.355 128.459C129.896 128.459 129.491 128.571 129.139 128.795C128.798 129.008 128.531 129.328 128.339 129.755C128.147 130.182 128.051 130.71 128.051 131.339C128.051 132.278 128.259 132.998 128.675 133.499C129.102 133.99 129.662 134.235 130.355 134.235ZM138.684 135.387C138.204 135.387 137.719 135.334 137.228 135.227C136.748 135.11 136.295 134.912 135.868 134.635C135.751 134.56 135.665 134.47 135.612 134.363C135.569 134.246 135.553 134.134 135.564 134.027C135.585 133.91 135.633 133.808 135.708 133.723C135.783 133.638 135.873 133.59 135.98 133.579C136.097 133.558 136.22 133.584 136.348 133.659C136.764 133.894 137.164 134.059 137.548 134.155C137.943 134.251 138.332 134.299 138.716 134.299C139.303 134.299 139.745 134.192 140.044 133.979C140.343 133.766 140.492 133.483 140.492 133.131C140.492 132.832 140.391 132.603 140.188 132.443C139.996 132.272 139.692 132.144 139.276 132.059L137.788 131.755C137.127 131.606 136.625 131.36 136.284 131.019C135.953 130.667 135.788 130.219 135.788 129.675C135.788 129.195 135.916 128.779 136.172 128.427C136.439 128.064 136.807 127.787 137.276 127.595C137.745 127.403 138.284 127.307 138.892 127.307C139.361 127.307 139.804 127.371 140.22 127.499C140.647 127.616 141.031 127.798 141.372 128.043C141.5 128.118 141.58 128.214 141.612 128.331C141.655 128.438 141.66 128.55 141.628 128.667C141.607 128.774 141.559 128.864 141.484 128.939C141.409 129.014 141.313 129.062 141.196 129.083C141.079 129.094 140.951 129.062 140.812 128.987C140.503 128.774 140.183 128.624 139.852 128.539C139.532 128.443 139.212 128.395 138.892 128.395C138.316 128.395 137.879 128.507 137.58 128.731C137.292 128.955 137.148 129.248 137.148 129.611C137.148 129.888 137.233 130.118 137.404 130.299C137.585 130.48 137.868 130.614 138.252 130.699L139.74 131.003C140.433 131.152 140.956 131.392 141.308 131.723C141.66 132.043 141.836 132.48 141.836 133.035C141.836 133.76 141.548 134.336 140.972 134.763C140.407 135.179 139.644 135.387 138.684 135.387Z" fill="black"/>
</svg>
