<svg width="106" height="106" viewBox="0 0 106 106" fill="none" xmlns="http://www.w3.org/2000/svg">
<path d="M52.8784 105.757C82.0823 105.757 105.757 82.0823 105.757 52.8784C105.757 23.6745 82.0823 0 52.8784 0C23.6745 0 0 23.6745 0 52.8784C0 82.0823 23.6745 105.757 52.8784 105.757Z" fill="#A472B0"/>
<path d="M48.3005 55.9304C46.3101 61.3708 44.7177 65.9488 43.1254 70.4603C42.5283 72.0527 41.9312 73.645 41.334 75.3036C40.8033 76.7633 41.2677 77.4268 42.86 77.4931C46.5754 77.7585 49.6937 77.095 52.2813 73.9104C56.7265 68.4699 61.5035 63.2285 66.2141 58.0535C67.0103 57.1246 68.6026 56.5275 69.7968 56.4612C73.5122 56.2621 77.294 56.5275 81.0094 56.3285C83.3316 56.1958 85.8527 55.864 87.9095 54.8025C89.3691 54.0727 91.0278 52.0823 91.0278 50.689C91.0278 49.2957 89.3691 47.1726 87.9095 46.5755C85.4547 45.5803 82.5354 45.0495 79.8815 45.0495C63.1621 45.3149 46.4427 45.7793 29.7234 46.2438C27.4676 46.3101 25.9416 45.7793 24.88 43.7889C23.9512 42.0639 22.8233 40.4052 21.5627 38.8129C20.9656 38.0168 20.0367 37.2869 19.1742 37.0216C14.928 35.8273 13.9992 36.8225 15.1271 41.0024C15.8569 43.7226 16.653 46.5091 17.1175 49.2957C17.5819 51.7505 18.8425 53.4092 21.231 53.8073C25.8089 54.6698 30.4532 55.466 35.0974 55.7977C39.2109 56.1958 43.3244 55.9304 48.3005 55.9304Z" fill="white"/>
<path d="M62.4323 42.5282C58.2525 38.1493 54.338 33.4387 49.7601 29.5906C48.0351 28.131 44.7841 28.5291 42.1302 28.2637C41.9312 28.2637 41.2014 29.5906 41.334 30.1214C42.7273 34.1685 44.2533 38.1493 45.8456 42.0638C46.0447 42.6609 46.8408 43.3907 47.3716 43.3907C52.2813 43.5234 57.2573 43.4571 62.1669 43.4571C62.2996 43.1254 62.366 42.7936 62.4323 42.5282Z" fill="white"/>
</svg>
