<svg width="187" height="281" viewBox="0 0 187 281" fill="none" xmlns="http://www.w3.org/2000/svg">
<path d="M54.1538 58.3533C68.3784 58.7574 82.603 58.1917 96.8276 56.8985C102.324 56.4136 107.739 55.8478 113.234 55.2012L142.007 0L43.9702 50.9985L42.1921 58.4341C46.2332 58.4341 50.2743 58.2725 54.1538 58.3533Z" fill="#C1D4E0"/>
<path d="M77.5921 168.756L164.718 159.38L154.373 62.2327C145.644 63.4451 136.996 64.5766 128.267 65.6272L77.5921 168.756Z" fill="#A472B0"/>
<path d="M150.008 21.4178L134.652 52.615C140.795 51.8068 146.937 50.9985 153.08 50.1903L150.008 21.4178Z" fill="#A472B0"/>
<path d="M41.3031 262.751C41.3839 262.428 41.6264 262.347 41.8688 262.347C42.0305 262.347 42.1921 262.428 42.3538 262.59C42.5154 262.751 42.5154 262.994 42.4346 263.236C41.7072 265.419 41.0606 267.439 40.3332 269.136C39.9291 270.187 39.6058 270.995 39.2825 271.642C38.9593 272.288 38.636 272.854 38.3127 273.339C37.9894 273.824 37.6661 274.228 37.3428 274.551C37.0195 274.875 36.6963 275.036 36.4538 275.036C35.5647 275.036 34.8374 274.632 34.1908 273.662C33.625 272.773 33.1401 271.561 32.736 270.025C32.3319 268.49 32.0894 266.712 31.9278 264.691C31.7661 262.671 31.6853 260.488 31.6853 258.225C31.6853 256.609 31.6853 254.993 31.7661 253.376C31.8469 251.76 31.9278 250.224 32.0086 248.769C31.362 248.85 30.7963 248.931 30.2305 248.931C29.6648 248.931 29.1798 248.931 28.7757 248.931H28.0483C27.6442 248.931 27.4018 248.85 27.3209 248.608C27.1593 248.365 27.1593 248.204 27.1593 247.961C27.1593 247.719 27.3209 247.476 27.4826 247.234C27.6442 246.991 27.8867 246.91 28.1291 246.91C28.3716 246.91 28.8565 246.91 29.5839 246.91C30.3113 246.91 31.2004 246.91 32.2511 246.91C32.4127 245.132 32.5743 243.678 32.6552 242.465C32.8168 241.334 32.8976 240.687 32.9785 240.525C33.1401 240.202 33.4634 240.041 33.8675 239.96C34.2716 239.879 34.6757 239.798 35.0798 239.798C35.5647 239.798 36.0497 239.879 36.5346 240.121C37.0195 240.364 37.262 240.687 37.262 241.253C37.262 241.495 37.1812 242.061 37.1004 243.031C37.0195 244.001 36.9387 245.213 36.7771 246.668C37.9086 246.587 39.0401 246.425 40.0908 246.264H40.1716C40.4141 246.264 40.5757 246.345 40.6565 246.506C40.7373 246.668 40.8182 246.83 40.7373 247.072C40.7373 247.234 40.6565 247.476 40.4949 247.638C40.3332 247.799 40.1716 247.88 39.9291 247.961C39.3634 248.042 38.7976 248.123 38.2319 248.204C37.6661 248.284 37.1004 248.365 36.5346 248.446C36.4538 250.143 36.2921 251.921 36.2113 253.861C36.1305 255.801 36.0497 257.74 36.0497 259.68C36.0497 260.973 36.0497 262.347 36.0497 263.721C36.0497 265.095 36.1305 266.388 36.2113 267.601C36.2921 268.732 36.373 269.702 36.4538 270.51C36.5346 271.238 36.6963 271.642 36.8579 271.642C37.1812 271.642 37.5853 271.157 38.0702 270.268C38.5552 269.379 38.9593 268.328 39.4442 267.197C40.2524 265.904 40.8182 264.449 41.3031 262.751Z" fill="#231F20"/>
<path d="M65.0647 257.498C65.2263 257.094 65.4688 256.851 65.8729 256.851C66.1154 256.851 66.3578 256.932 66.6003 257.175C66.8428 257.417 66.8428 257.741 66.7619 258.145C65.6304 261.62 64.5798 264.772 63.5291 267.439C62.8825 269.136 62.3167 270.43 61.9126 271.399C61.4277 272.369 61.0236 273.258 60.5387 274.067C60.0537 274.875 59.5688 275.521 59.0839 276.006C58.5989 276.572 58.1948 276.814 57.7099 276.814C56.4976 276.814 55.5277 276.249 54.8811 275.198C54.2346 274.147 53.7496 272.854 53.4264 271.399C53.1031 269.945 52.9414 268.409 52.8606 266.873C52.7798 265.338 52.7798 263.964 52.7798 262.913C52.7798 262.428 52.7798 261.943 52.7798 261.377C52.7798 260.812 52.7798 260.246 52.8606 259.599C52.4565 260.731 52.0524 262.024 51.4866 263.398C50.9209 264.772 50.3551 266.146 49.7086 267.358C49.062 268.571 48.4154 269.621 47.688 270.51C46.9606 271.319 46.314 271.723 45.6675 271.723C44.6168 271.723 43.7277 271.319 43.162 270.591C42.5154 269.864 42.1113 268.894 41.788 267.762C41.4647 266.631 41.3031 265.419 41.2223 264.045C41.1414 262.671 41.1414 261.458 41.1414 260.246C41.1414 257.902 41.3031 255.72 41.7072 253.78C42.1113 251.841 42.3538 250.467 42.5962 249.578C42.6771 249.416 42.7579 249.254 43.0003 249.093C43.162 249.012 43.3236 248.85 43.5661 248.769C43.8086 248.688 44.1319 248.608 44.536 248.608C45.425 248.608 46.0716 248.931 46.6373 249.658C47.2031 250.305 47.4455 251.275 47.4455 252.406C47.4455 252.972 47.3647 254.104 47.2031 255.801C47.0414 257.579 46.8798 259.357 46.799 261.216C46.6373 263.075 46.5565 264.772 46.5565 266.227C46.4757 267.682 46.5565 268.409 46.799 268.409C47.2031 268.409 47.688 267.601 48.3346 266.065C48.9812 264.53 49.7085 262.671 50.4359 260.65C51.1633 258.63 51.8099 256.609 52.4565 254.669C53.1031 252.73 53.588 251.356 53.9113 250.628C54.1537 250.547 54.5579 250.547 55.1236 250.547C56.2551 250.547 57.0633 250.79 57.7099 251.356C58.3565 251.921 58.5989 252.406 58.5989 252.972C58.5989 253.134 58.5989 253.78 58.5181 254.75C58.4373 255.801 58.3565 257.013 58.2757 258.387C58.1948 259.842 58.114 261.297 58.0332 262.913C57.9524 264.53 57.8715 265.984 57.8715 267.358C57.8715 268.732 57.9524 269.783 58.0332 270.672C58.114 271.561 58.3565 272.046 58.5989 272.046C59.0031 272.046 59.6496 271.238 60.377 269.702C61.1044 268.167 61.8318 266.469 62.5592 264.61C63.2866 262.671 64.1756 260.165 65.0647 257.498Z" fill="#231F20"/>
<path d="M83.4112 257.498C83.492 257.094 83.7345 256.851 84.2194 256.851C84.4619 256.851 84.7044 256.932 84.9468 257.175C85.1893 257.417 85.1893 257.741 85.1085 258.145C83.7345 262.105 82.3605 265.58 80.9866 268.571C80.1783 270.43 79.5318 271.884 78.8852 272.935C78.3194 273.986 77.6729 274.956 77.1071 275.845C76.4605 276.734 75.8948 277.461 75.2482 278.108C74.6016 278.673 74.0359 278.997 73.4701 278.997C71.7729 278.997 70.3989 278.269 69.4291 276.814C68.4592 275.36 67.9743 273.339 67.9743 270.834C67.9743 269.136 68.0551 267.277 68.2167 265.419C68.3784 263.56 68.6208 261.782 68.7825 260.004C68.9441 258.306 69.1866 256.69 69.3482 255.154C69.5099 253.699 69.5907 252.487 69.5907 251.598C69.5907 251.032 69.5099 250.709 69.4291 250.467C69.2674 250.224 69.1058 250.062 68.9441 249.982C68.8633 250.305 68.7825 250.871 68.54 251.841C68.2975 252.81 68.0551 253.78 67.8126 254.831C67.5702 255.882 67.2469 256.771 66.9236 257.579C66.6003 258.387 66.277 258.791 65.9537 258.791C65.7113 258.791 65.4688 258.63 65.2263 258.306C64.9839 257.983 64.9839 257.66 65.0647 257.336C65.9537 254.588 66.5195 252.083 67.0044 249.739C66.1154 249.739 65.6304 249.416 65.3071 248.85C65.0647 248.284 64.9839 247.638 65.0647 246.91C65.2263 246.183 65.4688 245.536 65.9537 244.971C66.4386 244.405 67.0044 244.082 67.651 244.082C68.3784 244.082 68.8633 244.405 69.1866 245.052C69.5099 245.698 69.5099 246.749 69.1866 248.284C70.0756 248.284 70.8838 248.365 71.6112 248.446C72.4195 248.527 73.066 248.769 73.6318 249.093C74.1975 249.416 74.6016 249.982 75.0058 250.628C75.329 251.275 75.4907 252.164 75.4907 253.376C75.4907 253.861 75.4099 254.669 75.2482 255.882C75.0866 257.094 75.0058 258.468 74.8441 260.084C74.6825 261.701 74.5208 263.317 74.3592 265.014C74.1975 266.712 74.1167 268.247 74.0359 269.621C73.9551 270.995 73.9551 272.208 74.0359 273.097C74.1167 273.986 74.3592 274.471 74.6825 274.471C75.0058 274.471 75.4099 274.228 75.814 273.743C76.2181 273.258 76.703 272.612 77.1071 271.803C77.5921 270.995 77.9962 270.106 78.5619 269.056C79.0468 268.086 79.5318 267.035 80.0167 265.904C81.1482 263.56 82.1989 260.65 83.4112 257.498Z" fill="#231F20"/>
<path d="M97.4742 257.498C97.555 257.094 97.7975 256.851 98.2016 256.851C98.4441 256.851 98.6865 256.932 98.929 257.175C99.1715 257.417 99.2523 257.741 99.0906 258.145C98.1208 261.297 97.0701 264.125 96.0194 266.631C95.4537 268.086 94.9687 269.298 94.4838 270.187C94.0797 271.076 93.5948 271.884 93.1906 272.612C92.7057 273.339 92.3016 273.905 91.8167 274.39C91.3317 274.875 90.9276 275.117 90.5235 275.117C89.2304 275.117 88.0989 274.713 87.129 273.905C86.24 273.097 85.4318 271.884 84.866 270.43C84.3003 268.975 83.8961 267.197 83.6537 265.176C83.4112 263.156 83.3304 260.973 83.3304 258.549C83.3304 256.286 83.4112 254.427 83.5729 252.891C83.7345 251.436 83.8961 250.467 83.977 250.143C84.0578 249.578 84.4619 249.173 85.1085 248.931C85.755 248.688 86.3208 248.527 86.9674 248.527C87.7756 248.527 88.4222 248.688 89.0687 249.012C89.6345 249.335 89.9578 249.658 89.9578 249.982C89.9578 250.143 89.877 250.628 89.7961 251.356C89.7153 252.083 89.6345 253.053 89.5537 254.104C89.4728 255.235 89.3112 256.447 89.3112 257.741C89.2304 259.114 89.1496 260.408 89.1496 261.782C89.1496 263.641 89.2304 265.095 89.392 266.227C89.5537 267.358 89.7153 268.247 89.9578 268.894C90.2002 269.541 90.4427 269.945 90.6852 270.187C90.9276 270.43 91.1701 270.51 91.3317 270.51C91.8167 270.51 92.3824 269.864 93.029 268.49C93.6756 267.116 94.403 265.58 95.0495 263.964C95.9386 262.105 96.666 259.923 97.4742 257.498ZM88.3413 244.486C87.6139 244.486 87.0482 244.324 86.6441 244.001C86.1592 243.678 85.8359 243.273 85.5934 242.788C85.3509 242.304 85.1085 241.819 85.0277 241.253C84.9468 240.687 84.866 240.283 84.866 239.879C84.866 239.152 85.1085 238.505 85.6742 237.778C86.24 237.131 87.129 236.727 88.5838 236.727C89.9578 236.727 90.9276 237.05 91.4934 237.616C92.0591 238.182 92.3016 238.99 92.3016 239.879C92.3016 240.202 92.2208 240.687 92.0591 241.172C91.8975 241.657 91.655 242.223 91.3317 242.708C91.0085 243.193 90.6044 243.597 90.1194 243.92C89.5537 244.324 88.9879 244.486 88.3413 244.486Z" fill="#231F20"/>
<path d="M113.234 257.498C113.396 257.094 113.639 256.851 114.043 256.851C114.285 256.851 114.528 256.932 114.77 257.175C115.013 257.417 115.013 257.741 114.932 258.145C114.285 260.408 113.477 262.347 112.426 263.883C111.376 265.499 110.406 266.873 109.355 268.005C109.436 268.49 109.517 268.894 109.517 269.298C109.517 269.702 109.517 270.025 109.517 270.43C109.517 273.42 109.032 275.764 108.143 277.461C107.254 279.158 105.637 280.047 103.374 280.047C103.132 280.047 102.808 279.967 102.404 279.805C102 279.643 101.596 279.401 101.273 279.077C100.869 278.754 100.545 278.269 100.303 277.704C100.06 277.138 99.8988 276.491 99.8988 275.683C99.8988 274.471 100.303 273.42 101.03 272.612C101.758 271.804 102.728 270.995 103.859 270.187C103.455 268.247 102.97 266.065 102.162 263.56C101.434 261.054 100.707 258.549 99.9797 256.043C99.818 256.447 99.6564 256.852 99.5756 257.175C99.4139 257.498 99.3331 257.821 99.2523 258.145C99.0906 258.549 98.8482 258.791 98.4441 258.791C98.1208 258.791 97.8783 258.71 97.6358 258.468C97.3934 258.225 97.3934 257.902 97.555 257.498C97.7167 257.094 97.8783 256.609 98.0399 256.124C98.2016 255.72 98.3632 255.235 98.5249 254.669C98.6865 254.104 98.929 253.538 99.0906 252.891C98.7673 251.679 98.5249 250.547 98.3632 249.578C98.2016 248.527 98.1208 247.638 98.1208 246.91C98.1208 245.779 98.3632 244.89 98.8482 244.162C99.3331 243.435 99.9797 242.869 100.707 242.465C101.434 241.98 102.162 241.738 103.051 241.495C103.859 241.334 104.587 241.253 105.233 241.253C106.041 241.253 106.607 241.415 107.092 241.819C107.496 242.223 107.819 242.627 107.9 243.031C108.062 243.516 108.062 243.92 107.981 244.324C107.9 244.728 107.739 244.89 107.577 244.89C107.173 244.89 106.93 244.809 106.85 244.567C106.769 244.324 106.688 244.082 106.607 243.839C106.526 243.597 106.445 243.354 106.284 243.112C106.122 242.869 105.88 242.789 105.476 242.789C105.152 242.789 104.829 243.031 104.587 243.435C104.263 243.839 104.182 244.567 104.182 245.456C104.182 246.506 104.344 247.719 104.748 249.254C105.152 250.79 105.556 252.406 106.122 254.265C106.688 256.043 107.173 257.983 107.739 259.923C108.304 261.862 108.789 263.721 109.113 265.499C109.921 264.53 110.648 263.398 111.456 262.105C111.941 260.731 112.588 259.195 113.234 257.498ZM103.051 277.299C103.293 277.299 103.536 276.976 103.697 276.33C103.859 275.683 103.94 274.551 103.94 272.854C103.374 273.42 102.889 273.905 102.485 274.39C102.081 274.875 101.919 275.44 101.919 275.925C102.081 276.814 102.404 277.299 103.051 277.299Z" fill="#231F20"/>
<path d="M151.948 257.498C152.11 257.094 152.352 256.851 152.756 256.851C152.999 256.851 153.241 256.932 153.484 257.175C153.726 257.417 153.726 257.741 153.645 258.145C152.191 262.267 150.817 265.903 149.362 269.136C148.473 271.076 147.745 272.612 147.18 273.743C146.533 274.875 145.967 275.925 145.321 276.895C144.674 277.865 144.028 278.673 143.462 279.239C142.815 279.886 142.249 280.209 141.684 280.209C140.31 280.209 139.178 279.401 138.289 277.865C137.4 276.329 136.996 274.471 136.996 272.288C136.996 270.672 137.077 268.732 137.319 266.55C137.562 264.287 137.804 262.186 138.047 260.165C138.289 258.145 138.532 256.367 138.693 254.912C138.855 253.457 138.936 252.73 138.855 252.73C138.774 252.73 138.532 253.214 138.128 254.265C137.723 255.316 137.238 256.609 136.673 258.145C136.107 259.68 135.541 261.377 134.895 263.156C134.248 264.934 133.682 266.631 133.117 268.166C132.551 269.702 131.985 270.995 131.5 272.046C131.015 273.097 130.611 273.582 130.369 273.582C130.126 273.662 129.803 273.743 129.237 273.743C128.591 273.743 127.863 273.582 127.136 273.339C126.328 273.097 125.923 272.531 125.843 271.803C125.762 271.157 125.681 270.025 125.6 268.328C125.6 266.631 125.519 264.934 125.519 263.236C125.519 261.458 125.519 259.923 125.519 258.549C125.519 257.175 125.439 256.528 125.358 256.528C125.277 256.528 125.034 257.094 124.549 258.225C124.065 259.357 123.499 260.812 122.852 262.59C122.206 264.368 121.559 266.227 120.912 268.247C120.266 270.268 119.781 272.046 119.377 273.743C119.377 274.228 119.377 274.551 119.458 274.713C119.458 275.036 119.296 275.198 118.892 275.36C118.488 275.521 118.003 275.602 117.437 275.602C116.71 275.602 116.063 275.521 115.417 275.279C114.77 275.036 114.366 274.794 114.285 274.309C113.639 272.369 113.234 270.025 113.073 267.116C112.911 264.206 112.83 261.377 112.911 258.63C112.992 255.882 113.154 253.457 113.315 251.356C113.558 249.254 113.719 248.123 113.881 247.799C114.285 247.234 115.013 246.991 116.063 246.991C116.952 246.991 117.922 247.234 118.811 247.638C119.781 248.042 120.185 248.608 120.185 249.254C119.943 253.053 119.7 256.286 119.619 259.034C119.458 261.782 119.377 264.045 119.296 265.823C119.862 264.287 120.508 262.751 121.155 261.216C121.802 259.68 122.367 258.225 122.933 257.013C123.499 255.72 123.984 254.669 124.388 253.78C124.792 252.891 125.115 252.406 125.277 252.245C125.6 251.921 126.247 251.679 127.217 251.679C127.863 251.679 128.51 251.76 129.156 252.002C129.803 252.245 130.207 252.487 130.449 252.81C130.53 252.972 130.611 253.538 130.692 254.588C130.773 255.558 130.773 256.771 130.854 258.145C130.934 259.519 130.934 261.054 130.934 262.671C130.934 264.287 130.934 265.823 130.854 267.197C131.419 265.58 132.147 263.64 132.955 261.377C133.763 259.114 134.571 256.932 135.38 254.912C136.188 252.891 136.915 251.032 137.481 249.578C138.128 248.042 138.451 247.234 138.612 246.991C138.855 246.668 139.421 246.587 140.229 246.587C141.118 246.587 142.007 246.749 142.977 247.153C143.947 247.476 144.512 248.042 144.755 248.688C144.917 249.093 144.917 250.062 144.836 251.517C144.755 252.972 144.674 254.669 144.512 256.609C144.351 258.549 144.189 260.569 144.028 262.671C143.785 264.772 143.623 266.712 143.543 268.571C143.381 270.349 143.3 271.884 143.219 273.016C143.138 274.147 143.219 274.713 143.3 274.713C143.623 274.713 144.028 274.471 144.432 273.986C144.836 273.501 145.321 272.854 145.725 272.046C146.21 271.238 146.695 270.349 147.18 269.298C147.664 268.328 148.149 267.277 148.634 266.146C149.685 263.56 150.817 260.65 151.948 257.498Z" fill="#231F20"/>
<path d="M161.162 251.194C162.132 251.275 163.021 252.002 163.667 253.134C164.314 254.346 164.637 256.205 164.637 258.63C164.637 259.842 164.475 261.378 164.152 263.236C163.829 265.095 163.344 266.954 162.697 268.651C162.051 270.43 161.323 271.884 160.354 273.177C159.464 274.39 158.414 275.036 157.363 275.036C156.797 275.036 156.151 274.956 155.343 274.875C154.615 274.794 153.888 274.39 153.16 273.824C152.433 273.258 151.867 272.369 151.463 271.157C150.978 269.945 150.817 268.247 150.817 266.065C150.817 263.883 150.978 261.782 151.382 259.923C151.786 257.983 152.271 256.367 152.837 254.912C153.403 253.457 154.049 252.325 154.858 251.517C155.585 250.709 156.312 250.224 157.04 250.224C158.171 250.224 159.06 250.305 159.869 250.467C160.596 250.79 161.081 250.951 161.162 251.194ZM158.091 272.935C158.171 272.935 158.495 272.531 158.899 271.642C159.384 270.753 159.869 269.702 160.354 268.328C160.919 266.954 161.323 265.419 161.808 263.802C162.212 262.105 162.455 260.488 162.455 258.791C162.455 256.69 162.212 255.235 161.889 254.346C161.485 253.457 161 252.972 160.434 252.73C160.03 253.457 159.707 254.346 159.303 255.397C158.899 256.447 158.575 257.66 158.252 258.953C157.929 260.246 157.686 261.539 157.444 262.913C157.201 264.287 157.121 265.58 157.121 266.793C157.121 268.894 157.201 270.43 157.444 271.48C157.686 272.369 157.929 272.935 158.091 272.935Z" fill="#231F20"/>
<path d="M17.9456 182.495C21.5018 182.495 24.8963 183.385 25.0579 185.001C27.8867 207.55 30.0689 224.442 31.1196 224.442C32.0086 224.442 41.0606 185.001 41.788 183.061C42.1113 182.011 43.5661 181.445 44.6168 181.445C45.8291 181.445 46.9606 182.011 46.5565 183.223C45.9908 185.567 36.2921 231.554 34.2716 234.787C33.3826 236.242 31.0387 237.131 28.6141 237.131C25.947 237.131 23.1182 236.08 21.8251 233.736C15.6018 221.128 9.05522 187.749 9.7018 185.082C10.51 183.385 14.2278 182.495 17.9456 182.495Z" fill="#231F20"/>
<path d="M77.5112 211.026C78.7236 211.026 80.1784 212.076 79.6126 213.693C79.6126 213.693 72.0962 237.131 64.8222 237.131C52.9414 237.131 48.8195 222.906 48.8195 204.075C48.8195 195.023 50.0318 188.8 50.436 187.345C50.7592 185.243 54.3154 184.112 56.9825 184.112C60.5387 184.112 63.5291 185.728 63.5291 186.941C63.5291 188.153 61.751 199.711 61.751 210.541C61.751 225.089 65.1455 227.917 66.762 227.917C70.8839 227.917 75.8948 212.157 75.8948 212.157C76.1373 211.349 76.7838 211.026 77.5112 211.026Z" fill="#231F20"/>
<path d="M88.6646 182.495C92.2208 182.495 95.6153 183.385 95.777 185.001C98.6057 207.55 100.788 224.442 101.839 224.442C102.728 224.442 111.78 185.001 112.507 183.061C112.83 182.011 114.285 181.445 115.336 181.445C116.548 181.445 117.68 182.011 117.276 183.223C116.71 185.567 106.93 231.554 104.991 234.787C104.102 236.242 101.758 237.131 99.3331 237.131C96.666 237.131 93.8372 236.08 92.5441 233.736C86.3208 221.128 79.7742 187.749 80.4208 185.082C81.1482 183.385 84.866 182.495 88.6646 182.495Z" fill="#231F20"/>
<path d="M184.923 200.68C186.136 200.68 187.429 201.731 186.863 203.347C186.863 203.347 174.093 240.525 166.577 240.525C155.181 240.525 151.625 225.089 151.625 214.905C151.625 212.4 151.786 209.732 151.948 206.904C146.048 220.401 137.4 237.131 129.884 237.131C120.266 237.131 115.659 229.695 115.659 216.845C115.659 202.458 126.328 185.243 143.058 185.243C149.281 185.243 152.837 186.456 154.938 188.476C155.262 187.749 155.504 187.264 155.666 186.698C156.393 185.243 158.171 184.758 160.111 184.758C164.395 184.758 169.89 187.102 169.325 189.365C164.718 210.298 166.981 231.473 168.597 231.473C172.477 231.473 182.984 201.974 182.984 201.974C183.549 201.004 184.196 200.68 184.923 200.68ZM148.311 204.237C148.311 200.68 147.745 192.517 144.432 192.517C140.148 192.517 130.53 204.964 130.53 222.341C130.53 226.22 131.743 227.675 133.036 227.675C137.481 227.675 143.543 215.228 148.311 204.237Z" fill="#231F20"/>
<path d="M169.244 53.9889C167.304 52.7766 164.718 51.8067 162.455 52.0492C150.493 53.4232 138.612 54.9588 126.651 56.4136C131.823 46.3917 137.319 36.5314 143.058 26.9945C145.159 23.5999 141.36 8.08217 138.208 13.1739C131.581 24.004 125.681 35.5616 119.862 47.1191C118.084 50.756 116.306 54.3122 114.528 57.9492C108.87 58.5957 103.213 59.2423 97.4742 59.8081C86.7249 60.8588 75.8948 61.5862 65.0647 61.9094C55.851 62.1519 45.5058 63.6067 36.5346 60.8588C36.1305 60.6971 31.847 59.7273 32.5743 61.5862C33.3826 63.6067 36.5346 64.4957 38.151 64.9807C47.688 67.8903 57.4674 66.9204 67.1661 66.9204C78.5619 66.8396 89.9578 66.1122 101.273 65.0615C104.667 64.7382 108.143 64.4149 111.537 64.0916C103.617 80.4984 95.9386 96.9861 88.1797 113.474C83.8153 122.687 79.451 131.901 74.9249 140.953C73.9551 142.893 64.4989 164.553 60.9428 159.865C59.0031 157.279 57.9524 153.4 56.7401 150.248C55.1236 146.206 53.5072 142.085 51.8099 138.124C47.9305 129.072 43.8086 120.263 38.7976 111.938C30.1497 97.5518 17.0566 82.0341 1.94291 87.4491C-2.179 88.9039 1.05387 104.907 4.28674 103.775C14.3086 100.138 23.684 106.281 30.9579 115.737C41.7072 129.719 48.5771 147.096 55.1236 163.906C57.3058 169.483 61.8318 180.96 67.8126 175.141C74.44 168.675 78.4003 157.683 82.603 148.954C96.5043 120.586 109.193 91.0053 123.418 62.7985C139.017 60.9396 154.534 58.8382 170.133 57.0601C172.558 56.5752 169.89 54.393 169.244 53.9889Z" fill="#231F20"/>
<path d="M32.2511 99.8148C48.6579 121.96 57.4675 149.763 60.5387 156.148C60.6195 156.228 60.6195 156.39 60.6195 156.471L106.688 67.8902C104.91 68.0519 103.051 68.2135 101.273 68.2943C86.3208 69.4258 71.288 69.9916 56.336 69.1026C50.8401 68.7793 45.2634 68.7793 39.7675 68.2943L32.2511 99.8148Z" fill="#C1D4E0"/>
<path d="M54.962 166.816C51.8908 154.935 32.0086 116.626 28.6141 114.605L14.3086 173.928L51.4058 174.171L55.0428 167.139C55.0428 167.059 54.962 166.978 54.962 166.816Z" fill="#C1D4E0"/>
</svg>
