<svg width="129" height="142" viewBox="0 0 129 142" fill="none" xmlns="http://www.w3.org/2000/svg">
<path d="M64.8784 105.757C94.0823 105.757 117.757 82.0823 117.757 52.8784C117.757 23.6745 94.0823 0 64.8784 0C35.6745 0 12 23.6745 12 52.8784C12 82.0823 35.6745 105.757 64.8784 105.757Z" fill="#A472B0"/>
<path d="M60.3005 55.9304C58.3101 61.3708 56.7177 65.9488 55.1254 70.4603C54.5283 72.0527 53.9312 73.645 53.334 75.3037C52.8033 76.7633 53.2677 77.4267 54.86 77.4931C58.5754 77.7585 61.6937 77.095 64.2813 73.9104C68.7265 68.4699 73.5035 63.2285 78.2141 58.0535C79.0102 57.1246 80.6026 56.5275 81.7968 56.4612C85.5122 56.2621 89.294 56.5275 93.0094 56.3285C95.3316 56.1958 97.8527 55.864 99.9095 54.8025C101.369 54.0727 103.028 52.0823 103.028 50.689C103.028 49.2957 101.369 47.1726 99.9095 46.5755C97.4547 45.5803 94.5354 45.0495 91.8815 45.0495C75.1621 45.3149 58.4427 45.7793 41.7234 46.2438C39.4676 46.3101 37.9416 45.7793 36.88 43.7889C35.9512 42.0639 34.8233 40.4052 33.5627 38.8129C32.9656 38.0168 32.0367 37.2869 31.1742 37.0216C26.928 35.8273 25.9992 36.8225 27.1271 41.0024C27.8569 43.7226 28.653 46.5091 29.1175 49.2957C29.5819 51.7505 30.8425 53.4092 33.231 53.8073C37.8089 54.6698 42.4532 55.466 47.0974 55.7977C51.2109 56.1958 55.3244 55.9304 60.3005 55.9304Z" fill="white"/>
<path d="M74.4323 42.5282C70.2525 38.1493 66.338 33.4387 61.7601 29.5906C60.0351 28.131 56.7841 28.5291 54.1302 28.2637C53.9312 28.2637 53.2014 29.5906 53.334 30.1214C54.7273 34.1685 56.2533 38.1493 57.8456 42.0638C58.0447 42.6609 58.8408 43.3907 59.3716 43.3907C64.2813 43.5234 69.2573 43.4571 74.1669 43.4571C74.2996 43.1254 74.366 42.7936 74.4323 42.5282Z" fill="white"/>
<path d="M2.096 136.112C1.86133 136.112 1.68 136.048 1.552 135.92C1.424 135.781 1.36 135.589 1.36 135.344V125.472C1.36 125.227 1.424 125.04 1.552 124.912C1.69067 124.784 1.87733 124.72 2.112 124.72H5.92C7.136 124.72 8.06933 125.019 8.72 125.616C9.38133 126.213 9.712 127.051 9.712 128.128C9.712 129.216 9.38133 130.059 8.72 130.656C8.06933 131.253 7.136 131.552 5.92 131.552H2.848V135.344C2.848 135.589 2.784 135.781 2.656 135.92C2.53867 136.048 2.352 136.112 2.096 136.112ZM2.848 130.352H5.728C6.56 130.352 7.184 130.165 7.6 129.792C8.02667 129.408 8.24 128.853 8.24 128.128C8.24 127.403 8.02667 126.859 7.6 126.496C7.184 126.123 6.56 125.936 5.728 125.936H2.848V130.352ZM13.4449 136.144C12.9115 136.144 12.4262 136.037 11.9889 135.824C11.5622 135.611 11.2262 135.323 10.9809 134.96C10.7462 134.597 10.6289 134.192 10.6289 133.744C10.6289 133.168 10.7729 132.715 11.0609 132.384C11.3489 132.053 11.8342 131.819 12.5169 131.68C13.1995 131.531 14.1169 131.456 15.2689 131.456H16.0209V132.384H15.3009C14.4795 132.384 13.8289 132.421 13.3489 132.496C12.8795 132.571 12.5489 132.704 12.3569 132.896C12.1649 133.077 12.0689 133.333 12.0689 133.664C12.0689 134.08 12.2129 134.421 12.5009 134.688C12.7995 134.955 13.2049 135.088 13.7169 135.088C14.1222 135.088 14.4795 134.992 14.7889 134.8C15.0982 134.597 15.3435 134.331 15.5249 134C15.7062 133.659 15.7969 133.269 15.7969 132.832V130.992C15.7969 130.363 15.6689 129.909 15.4129 129.632C15.1569 129.344 14.7249 129.2 14.1169 129.2C13.7649 129.2 13.4022 129.248 13.0289 129.344C12.6555 129.44 12.2662 129.589 11.8609 129.792C11.7009 129.867 11.5622 129.893 11.4449 129.872C11.3275 129.84 11.2315 129.776 11.1569 129.68C11.0929 129.573 11.0555 129.461 11.0449 129.344C11.0449 129.216 11.0715 129.093 11.1249 128.976C11.1889 128.859 11.2955 128.773 11.4449 128.72C11.9142 128.485 12.3782 128.32 12.8369 128.224C13.3062 128.117 13.7435 128.064 14.1489 128.064C14.8422 128.064 15.4129 128.176 15.8609 128.4C16.3089 128.613 16.6449 128.949 16.8689 129.408C17.0929 129.856 17.2049 130.432 17.2049 131.136V135.36C17.2049 135.605 17.1462 135.792 17.0289 135.92C16.9115 136.048 16.7409 136.112 16.5169 136.112C16.3035 136.112 16.1329 136.048 16.0049 135.92C15.8875 135.792 15.8289 135.605 15.8289 135.36V134.224H15.9729C15.8875 134.619 15.7275 134.96 15.4929 135.248C15.2582 135.536 14.9649 135.76 14.6129 135.92C14.2715 136.069 13.8822 136.144 13.4449 136.144ZM22.1841 136.144C21.7041 136.144 21.2188 136.091 20.7281 135.984C20.2481 135.867 19.7948 135.669 19.3681 135.392C19.2508 135.317 19.1655 135.227 19.1121 135.12C19.0695 135.003 19.0535 134.891 19.0641 134.784C19.0855 134.667 19.1335 134.565 19.2081 134.48C19.2828 134.395 19.3735 134.347 19.4801 134.336C19.5975 134.315 19.7201 134.341 19.8481 134.416C20.2641 134.651 20.6641 134.816 21.0481 134.912C21.4428 135.008 21.8321 135.056 22.2161 135.056C22.8028 135.056 23.2455 134.949 23.5441 134.736C23.8428 134.523 23.9921 134.24 23.9921 133.888C23.9921 133.589 23.8908 133.36 23.6881 133.2C23.4961 133.029 23.1921 132.901 22.7761 132.816L21.2881 132.512C20.6268 132.363 20.1255 132.117 19.7841 131.776C19.4535 131.424 19.2881 130.976 19.2881 130.432C19.2881 129.952 19.4161 129.536 19.6721 129.184C19.9388 128.821 20.3068 128.544 20.7761 128.352C21.2455 128.16 21.7841 128.064 22.3921 128.064C22.8615 128.064 23.3041 128.128 23.7201 128.256C24.1468 128.373 24.5308 128.555 24.8721 128.8C25.0001 128.875 25.0801 128.971 25.1121 129.088C25.1548 129.195 25.1601 129.307 25.1281 129.424C25.1068 129.531 25.0588 129.621 24.9841 129.696C24.9095 129.771 24.8135 129.819 24.6961 129.84C24.5788 129.851 24.4508 129.819 24.3121 129.744C24.0028 129.531 23.6828 129.381 23.3521 129.296C23.0321 129.2 22.7121 129.152 22.3921 129.152C21.8161 129.152 21.3788 129.264 21.0801 129.488C20.7921 129.712 20.6481 130.005 20.6481 130.368C20.6481 130.645 20.7335 130.875 20.9041 131.056C21.0855 131.237 21.3681 131.371 21.7521 131.456L23.2401 131.76C23.9335 131.909 24.4561 132.149 24.8081 132.48C25.1601 132.8 25.3361 133.237 25.3361 133.792C25.3361 134.517 25.0481 135.093 24.4721 135.52C23.9068 135.936 23.1441 136.144 22.1841 136.144ZM29.9185 136.144C29.4385 136.144 28.9532 136.091 28.4625 135.984C27.9825 135.867 27.5292 135.669 27.1025 135.392C26.9852 135.317 26.8998 135.227 26.8465 135.12C26.8038 135.003 26.7878 134.891 26.7985 134.784C26.8198 134.667 26.8678 134.565 26.9425 134.48C27.0172 134.395 27.1078 134.347 27.2145 134.336C27.3318 134.315 27.4545 134.341 27.5825 134.416C27.9985 134.651 28.3985 134.816 28.7825 134.912C29.1772 135.008 29.5665 135.056 29.9505 135.056C30.5372 135.056 30.9798 134.949 31.2785 134.736C31.5772 134.523 31.7265 134.24 31.7265 133.888C31.7265 133.589 31.6252 133.36 31.4225 133.2C31.2305 133.029 30.9265 132.901 30.5105 132.816L29.0225 132.512C28.3612 132.363 27.8598 132.117 27.5185 131.776C27.1878 131.424 27.0225 130.976 27.0225 130.432C27.0225 129.952 27.1505 129.536 27.4065 129.184C27.6732 128.821 28.0412 128.544 28.5105 128.352C28.9798 128.16 29.5185 128.064 30.1265 128.064C30.5958 128.064 31.0385 128.128 31.4545 128.256C31.8812 128.373 32.2652 128.555 32.6065 128.8C32.7345 128.875 32.8145 128.971 32.8465 129.088C32.8892 129.195 32.8945 129.307 32.8625 129.424C32.8412 129.531 32.7932 129.621 32.7185 129.696C32.6438 129.771 32.5478 129.819 32.4305 129.84C32.3132 129.851 32.1852 129.819 32.0465 129.744C31.7372 129.531 31.4172 129.381 31.0865 129.296C30.7665 129.2 30.4465 129.152 30.1265 129.152C29.5505 129.152 29.1132 129.264 28.8145 129.488C28.5265 129.712 28.3825 130.005 28.3825 130.368C28.3825 130.645 28.4678 130.875 28.6385 131.056C28.8198 131.237 29.1025 131.371 29.4865 131.456L30.9745 131.76C31.6678 131.909 32.1905 132.149 32.5425 132.48C32.8945 132.8 33.0705 133.237 33.0705 133.792C33.0705 134.517 32.7825 135.093 32.2065 135.52C31.6412 135.936 30.8785 136.144 29.9185 136.144ZM37.4449 136.144C36.9115 136.144 36.4262 136.037 35.9889 135.824C35.5622 135.611 35.2262 135.323 34.9809 134.96C34.7462 134.597 34.6289 134.192 34.6289 133.744C34.6289 133.168 34.7729 132.715 35.0609 132.384C35.3489 132.053 35.8342 131.819 36.5169 131.68C37.1995 131.531 38.1169 131.456 39.2689 131.456H40.0209V132.384H39.3009C38.4795 132.384 37.8289 132.421 37.3489 132.496C36.8795 132.571 36.5489 132.704 36.3569 132.896C36.1649 133.077 36.0689 133.333 36.0689 133.664C36.0689 134.08 36.2129 134.421 36.5009 134.688C36.7995 134.955 37.2049 135.088 37.7169 135.088C38.1222 135.088 38.4795 134.992 38.7889 134.8C39.0982 134.597 39.3435 134.331 39.5249 134C39.7062 133.659 39.7969 133.269 39.7969 132.832V130.992C39.7969 130.363 39.6689 129.909 39.4129 129.632C39.1569 129.344 38.7249 129.2 38.1169 129.2C37.7649 129.2 37.4022 129.248 37.0289 129.344C36.6555 129.44 36.2662 129.589 35.8609 129.792C35.7009 129.867 35.5622 129.893 35.4449 129.872C35.3275 129.84 35.2315 129.776 35.1569 129.68C35.0929 129.573 35.0555 129.461 35.0449 129.344C35.0449 129.216 35.0715 129.093 35.1249 128.976C35.1889 128.859 35.2955 128.773 35.4449 128.72C35.9142 128.485 36.3782 128.32 36.8369 128.224C37.3062 128.117 37.7435 128.064 38.1489 128.064C38.8422 128.064 39.4129 128.176 39.8609 128.4C40.3089 128.613 40.6449 128.949 40.8689 129.408C41.0929 129.856 41.2049 130.432 41.2049 131.136V135.36C41.2049 135.605 41.1462 135.792 41.0289 135.92C40.9115 136.048 40.7409 136.112 40.5169 136.112C40.3035 136.112 40.1329 136.048 40.0049 135.92C39.8875 135.792 39.8289 135.605 39.8289 135.36V134.224H39.9729C39.8875 134.619 39.7275 134.96 39.4929 135.248C39.2582 135.536 38.9649 135.76 38.6129 135.92C38.2715 136.069 37.8822 136.144 37.4449 136.144ZM47.0001 139.024C46.4241 139.024 45.8641 138.96 45.3201 138.832C44.7868 138.704 44.3015 138.507 43.8641 138.24C43.7255 138.155 43.6295 138.053 43.5761 137.936C43.5335 137.829 43.5228 137.717 43.5441 137.6C43.5761 137.483 43.6295 137.376 43.7041 137.28C43.7895 137.195 43.8855 137.136 43.9921 137.104C44.1095 137.083 44.2268 137.109 44.3441 137.184C44.8135 137.451 45.2615 137.632 45.6881 137.728C46.1148 137.824 46.5201 137.872 46.9041 137.872C47.6615 137.872 48.2268 137.675 48.6001 137.28C48.9841 136.896 49.1761 136.331 49.1761 135.584V133.856H49.3201C49.1708 134.453 48.8348 134.928 48.3121 135.28C47.8001 135.632 47.2028 135.808 46.5201 135.808C45.8161 135.808 45.2028 135.648 44.6801 135.328C44.1575 134.997 43.7521 134.544 43.4641 133.968C43.1761 133.381 43.0321 132.704 43.0321 131.936C43.0321 131.349 43.1121 130.821 43.2721 130.352C43.4428 129.872 43.6775 129.467 43.9761 129.136C44.2855 128.795 44.6535 128.533 45.0801 128.352C45.5068 128.16 45.9868 128.064 46.5201 128.064C47.2135 128.064 47.8161 128.24 48.3281 128.592C48.8401 128.944 49.1708 129.419 49.3201 130.016L49.1441 130.24V128.832C49.1441 128.587 49.2081 128.405 49.3361 128.288C49.4641 128.16 49.6455 128.096 49.8801 128.096C50.1041 128.096 50.2801 128.16 50.4081 128.288C50.5361 128.405 50.6001 128.587 50.6001 128.832V135.392C50.6001 136.597 50.2908 137.504 49.6721 138.112C49.0641 138.72 48.1735 139.024 47.0001 139.024ZM46.8401 134.656C47.3201 134.656 47.7308 134.549 48.0721 134.336C48.4241 134.112 48.6908 133.797 48.8721 133.392C49.0641 132.976 49.1601 132.491 49.1601 131.936C49.1601 131.093 48.9521 130.432 48.5361 129.952C48.1201 129.461 47.5548 129.216 46.8401 129.216C46.3601 129.216 45.9441 129.328 45.5921 129.552C45.2508 129.765 44.9841 130.075 44.7921 130.48C44.6001 130.885 44.5041 131.371 44.5041 131.936C44.5041 132.768 44.7121 133.429 45.1281 133.92C45.5548 134.411 46.1255 134.656 46.8401 134.656ZM56.5336 136.144C55.691 136.144 54.9656 135.984 54.3576 135.664C53.7603 135.333 53.2963 134.869 52.9656 134.272C52.635 133.664 52.4696 132.949 52.4696 132.128C52.4696 131.317 52.6296 130.608 52.9496 130C53.2803 129.392 53.7283 128.917 54.2936 128.576C54.8696 128.235 55.5256 128.064 56.2616 128.064C56.7843 128.064 57.2536 128.155 57.6696 128.336C58.0963 128.507 58.459 128.757 58.7576 129.088C59.0563 129.419 59.2803 129.824 59.4296 130.304C59.5896 130.773 59.6696 131.307 59.6696 131.904C59.6696 132.075 59.6163 132.208 59.5096 132.304C59.4136 132.389 59.2696 132.432 59.0776 132.432H53.6056V131.504H58.7096L58.4376 131.728C58.4376 131.173 58.3523 130.704 58.1816 130.32C58.0216 129.925 57.7816 129.627 57.4616 129.424C57.1523 129.221 56.763 129.12 56.2936 129.12C55.7816 129.12 55.3443 129.243 54.9816 129.488C54.619 129.723 54.3416 130.059 54.1496 130.496C53.9576 130.923 53.8616 131.419 53.8616 131.984V132.08C53.8616 133.04 54.091 133.765 54.5496 134.256C55.0083 134.747 55.6696 134.992 56.5336 134.992C56.875 134.992 57.2216 134.949 57.5736 134.864C57.9363 134.779 58.283 134.624 58.6136 134.4C58.7736 134.304 58.9176 134.261 59.0456 134.272C59.1843 134.272 59.2963 134.315 59.3816 134.4C59.467 134.475 59.5203 134.571 59.5416 134.688C59.563 134.795 59.547 134.912 59.4936 135.04C59.4403 135.168 59.339 135.28 59.1896 135.376C58.8376 135.621 58.4163 135.813 57.9256 135.952C57.4456 136.08 56.9816 136.144 56.5336 136.144ZM62.2005 136.112C61.9765 136.112 61.8005 136.048 61.6725 135.92C61.5445 135.792 61.4805 135.605 61.4805 135.36V128.832C61.4805 128.587 61.5445 128.405 61.6725 128.288C61.8005 128.16 61.9765 128.096 62.2005 128.096C62.4245 128.096 62.5952 128.16 62.7125 128.288C62.8405 128.405 62.9045 128.587 62.9045 128.832V130.144L62.7285 129.904C62.9525 129.296 63.3152 128.837 63.8165 128.528C64.3285 128.219 64.9098 128.064 65.5605 128.064C66.1898 128.064 66.7072 128.176 67.1125 128.4C67.5178 128.624 67.8218 128.965 68.0245 129.424C68.2272 129.883 68.3285 130.464 68.3285 131.168V135.36C68.3285 135.605 68.2645 135.792 68.1365 135.92C68.0192 136.048 67.8432 136.112 67.6085 136.112C67.3738 136.112 67.1925 136.048 67.0645 135.92C66.9365 135.792 66.8725 135.605 66.8725 135.36V131.248C66.8725 130.555 66.7392 130.048 66.4725 129.728C66.2058 129.408 65.7792 129.248 65.1925 129.248C64.5098 129.248 63.9605 129.461 63.5445 129.888C63.1392 130.304 62.9365 130.869 62.9365 131.584V135.36C62.9365 135.861 62.6912 136.112 62.2005 136.112ZM73.3248 136.144C72.8448 136.144 72.3594 136.091 71.8688 135.984C71.3888 135.867 70.9354 135.669 70.5088 135.392C70.3914 135.317 70.3061 135.227 70.2528 135.12C70.2101 135.003 70.1941 134.891 70.2048 134.784C70.2261 134.667 70.2741 134.565 70.3488 134.48C70.4234 134.395 70.5141 134.347 70.6208 134.336C70.7381 134.315 70.8608 134.341 70.9888 134.416C71.4048 134.651 71.8048 134.816 72.1888 134.912C72.5834 135.008 72.9728 135.056 73.3568 135.056C73.9434 135.056 74.3861 134.949 74.6848 134.736C74.9834 134.523 75.1328 134.24 75.1328 133.888C75.1328 133.589 75.0314 133.36 74.8288 133.2C74.6368 133.029 74.3328 132.901 73.9168 132.816L72.4288 132.512C71.7674 132.363 71.2661 132.117 70.9248 131.776C70.5941 131.424 70.4288 130.976 70.4288 130.432C70.4288 129.952 70.5568 129.536 70.8128 129.184C71.0794 128.821 71.4474 128.544 71.9168 128.352C72.3861 128.16 72.9248 128.064 73.5328 128.064C74.0021 128.064 74.4448 128.128 74.8608 128.256C75.2874 128.373 75.6714 128.555 76.0128 128.8C76.1408 128.875 76.2208 128.971 76.2528 129.088C76.2954 129.195 76.3008 129.307 76.2688 129.424C76.2474 129.531 76.1994 129.621 76.1248 129.696C76.0501 129.771 75.9541 129.819 75.8368 129.84C75.7194 129.851 75.5914 129.819 75.4528 129.744C75.1434 129.531 74.8234 129.381 74.4928 129.296C74.1728 129.2 73.8528 129.152 73.5328 129.152C72.9568 129.152 72.5194 129.264 72.2208 129.488C71.9328 129.712 71.7888 130.005 71.7888 130.368C71.7888 130.645 71.8741 130.875 72.0448 131.056C72.2261 131.237 72.5088 131.371 72.8928 131.456L74.3808 131.76C75.0741 131.909 75.5968 132.149 75.9488 132.48C76.3008 132.8 76.4768 133.237 76.4768 133.792C76.4768 134.517 76.1888 135.093 75.6128 135.52C75.0474 135.936 74.2848 136.144 73.3248 136.144ZM85.023 136.144C84.4897 136.144 84.0043 136.037 83.567 135.824C83.1403 135.611 82.8043 135.323 82.559 134.96C82.3243 134.597 82.207 134.192 82.207 133.744C82.207 133.168 82.351 132.715 82.639 132.384C82.927 132.053 83.4123 131.819 84.095 131.68C84.7777 131.531 85.695 131.456 86.847 131.456H87.599V132.384H86.879C86.0577 132.384 85.407 132.421 84.927 132.496C84.4577 132.571 84.127 132.704 83.935 132.896C83.743 133.077 83.647 133.333 83.647 133.664C83.647 134.08 83.791 134.421 84.079 134.688C84.3777 134.955 84.783 135.088 85.295 135.088C85.7003 135.088 86.0577 134.992 86.367 134.8C86.6763 134.597 86.9217 134.331 87.103 134C87.2843 133.659 87.375 133.269 87.375 132.832V130.992C87.375 130.363 87.247 129.909 86.991 129.632C86.735 129.344 86.303 129.2 85.695 129.2C85.343 129.2 84.9803 129.248 84.607 129.344C84.2337 129.44 83.8443 129.589 83.439 129.792C83.279 129.867 83.1403 129.893 83.023 129.872C82.9057 129.84 82.8097 129.776 82.735 129.68C82.671 129.573 82.6337 129.461 82.623 129.344C82.623 129.216 82.6497 129.093 82.703 128.976C82.767 128.859 82.8737 128.773 83.023 128.72C83.4923 128.485 83.9563 128.32 84.415 128.224C84.8843 128.117 85.3217 128.064 85.727 128.064C86.4203 128.064 86.991 128.176 87.439 128.4C87.887 128.613 88.223 128.949 88.447 129.408C88.671 129.856 88.783 130.432 88.783 131.136V135.36C88.783 135.605 88.7243 135.792 88.607 135.92C88.4897 136.048 88.319 136.112 88.095 136.112C87.8817 136.112 87.711 136.048 87.583 135.92C87.4657 135.792 87.407 135.605 87.407 135.36V134.224H87.551C87.4657 134.619 87.3057 134.96 87.071 135.248C86.8363 135.536 86.543 135.76 86.191 135.92C85.8497 136.069 85.4603 136.144 85.023 136.144ZM94.6743 136.144C93.8316 136.144 93.1063 135.984 92.4983 135.664C91.9009 135.333 91.4369 134.869 91.1063 134.272C90.7756 133.664 90.6103 132.949 90.6103 132.128C90.6103 131.317 90.7703 130.608 91.0903 130C91.4209 129.392 91.8689 128.917 92.4343 128.576C93.0103 128.235 93.6663 128.064 94.4023 128.064C94.9249 128.064 95.3943 128.155 95.8103 128.336C96.2369 128.507 96.5996 128.757 96.8983 129.088C97.1969 129.419 97.4209 129.824 97.5703 130.304C97.7303 130.773 97.8103 131.307 97.8103 131.904C97.8103 132.075 97.7569 132.208 97.6503 132.304C97.5543 132.389 97.4103 132.432 97.2183 132.432H91.7463V131.504H96.8503L96.5783 131.728C96.5783 131.173 96.4929 130.704 96.3223 130.32C96.1623 129.925 95.9223 129.627 95.6023 129.424C95.2929 129.221 94.9036 129.12 94.4343 129.12C93.9223 129.12 93.4849 129.243 93.1223 129.488C92.7596 129.723 92.4823 130.059 92.2903 130.496C92.0983 130.923 92.0023 131.419 92.0023 131.984V132.08C92.0023 133.04 92.2316 133.765 92.6903 134.256C93.1489 134.747 93.8103 134.992 94.6743 134.992C95.0156 134.992 95.3623 134.949 95.7143 134.864C96.0769 134.779 96.4236 134.624 96.7543 134.4C96.9143 134.304 97.0583 134.261 97.1863 134.272C97.3249 134.272 97.4369 134.315 97.5223 134.4C97.6076 134.475 97.6609 134.571 97.6823 134.688C97.7036 134.795 97.6876 134.912 97.6343 135.04C97.5809 135.168 97.4796 135.28 97.3303 135.376C96.9783 135.621 96.5569 135.813 96.0663 135.952C95.5863 136.08 95.1223 136.144 94.6743 136.144ZM94.9783 127.088C94.8929 127.205 94.7916 127.275 94.6743 127.296C94.5676 127.317 94.4609 127.301 94.3543 127.248C94.2476 127.184 94.1729 127.099 94.1302 126.992C94.0876 126.885 94.0983 126.763 94.1623 126.624L95.4743 124.08C95.5489 123.909 95.6503 123.803 95.7783 123.76C95.9063 123.707 96.0343 123.696 96.1623 123.728C96.3009 123.76 96.4183 123.824 96.5143 123.92C96.6103 124.005 96.6636 124.117 96.6743 124.256C96.6956 124.384 96.6636 124.517 96.5783 124.656L94.9783 127.088ZM100.373 136.112C100.128 136.112 99.9411 136.048 99.8131 135.92C99.6851 135.792 99.6211 135.605 99.6211 135.36V128.832C99.6211 128.587 99.6851 128.405 99.8131 128.288C99.9411 128.16 100.117 128.096 100.341 128.096C100.565 128.096 100.736 128.16 100.853 128.288C100.981 128.405 101.045 128.587 101.045 128.832V130.064H100.885C101.056 129.424 101.376 128.939 101.845 128.608C102.314 128.277 102.906 128.091 103.621 128.048C103.792 128.037 103.93 128.08 104.037 128.176C104.144 128.261 104.202 128.411 104.213 128.624C104.224 128.827 104.176 128.992 104.069 129.12C103.962 129.237 103.797 129.307 103.573 129.328L103.285 129.344C102.581 129.419 102.037 129.648 101.653 130.032C101.28 130.416 101.093 130.944 101.093 131.616V135.36C101.093 135.605 101.029 135.792 100.901 135.92C100.784 136.048 100.608 136.112 100.373 136.112ZM108.956 136.144C108.113 136.144 107.388 135.984 106.78 135.664C106.182 135.333 105.718 134.869 105.388 134.272C105.057 133.664 104.892 132.949 104.892 132.128C104.892 131.317 105.052 130.608 105.372 130C105.702 129.392 106.15 128.917 106.716 128.576C107.292 128.235 107.948 128.064 108.684 128.064C109.206 128.064 109.676 128.155 110.092 128.336C110.518 128.507 110.881 128.757 111.18 129.088C111.478 129.419 111.702 129.824 111.852 130.304C112.012 130.773 112.092 131.307 112.092 131.904C112.092 132.075 112.038 132.208 111.932 132.304C111.836 132.389 111.692 132.432 111.5 132.432H106.028V131.504H111.132L110.86 131.728C110.86 131.173 110.774 130.704 110.604 130.32C110.444 129.925 110.204 129.627 109.884 129.424C109.574 129.221 109.185 129.12 108.716 129.12C108.204 129.12 107.766 129.243 107.404 129.488C107.041 129.723 106.764 130.059 106.572 130.496C106.38 130.923 106.284 131.419 106.284 131.984V132.08C106.284 133.04 106.513 133.765 106.972 134.256C107.43 134.747 108.092 134.992 108.956 134.992C109.297 134.992 109.644 134.949 109.996 134.864C110.358 134.779 110.705 134.624 111.036 134.4C111.196 134.304 111.34 134.261 111.468 134.272C111.606 134.272 111.718 134.315 111.804 134.4C111.889 134.475 111.942 134.571 111.964 134.688C111.985 134.795 111.969 134.912 111.916 135.04C111.862 135.168 111.761 135.28 111.612 135.376C111.26 135.621 110.838 135.813 110.348 135.952C109.868 136.08 109.404 136.144 108.956 136.144ZM116.382 136.144C115.849 136.144 115.364 136.037 114.926 135.824C114.5 135.611 114.164 135.323 113.918 134.96C113.684 134.597 113.566 134.192 113.566 133.744C113.566 133.168 113.71 132.715 113.998 132.384C114.286 132.053 114.772 131.819 115.454 131.68C116.137 131.531 117.054 131.456 118.206 131.456H118.958V132.384H118.238C117.417 132.384 116.766 132.421 116.286 132.496C115.817 132.571 115.486 132.704 115.294 132.896C115.102 133.077 115.006 133.333 115.006 133.664C115.006 134.08 115.15 134.421 115.438 134.688C115.737 134.955 116.142 135.088 116.654 135.088C117.06 135.088 117.417 134.992 117.726 134.8C118.036 134.597 118.281 134.331 118.462 134C118.644 133.659 118.734 133.269 118.734 132.832V130.992C118.734 130.363 118.606 129.909 118.35 129.632C118.094 129.344 117.662 129.2 117.054 129.2C116.702 129.2 116.34 129.248 115.966 129.344C115.593 129.44 115.204 129.589 114.798 129.792C114.638 129.867 114.5 129.893 114.382 129.872C114.265 129.84 114.169 129.776 114.094 129.68C114.03 129.573 113.993 129.461 113.982 129.344C113.982 129.216 114.009 129.093 114.062 128.976C114.126 128.859 114.233 128.773 114.382 128.72C114.852 128.485 115.316 128.32 115.774 128.224C116.244 128.117 116.681 128.064 117.086 128.064C117.78 128.064 118.35 128.176 118.798 128.4C119.246 128.613 119.582 128.949 119.806 129.408C120.03 129.856 120.142 130.432 120.142 131.136V135.36C120.142 135.605 120.084 135.792 119.966 135.92C119.849 136.048 119.678 136.112 119.454 136.112C119.241 136.112 119.07 136.048 118.942 135.92C118.825 135.792 118.766 135.605 118.766 135.36V134.224H118.91C118.825 134.619 118.665 134.96 118.43 135.248C118.196 135.536 117.902 135.76 117.55 135.92C117.209 136.069 116.82 136.144 116.382 136.144ZM125.122 136.144C124.642 136.144 124.156 136.091 123.666 135.984C123.186 135.867 122.732 135.669 122.306 135.392C122.188 135.317 122.103 135.227 122.05 135.12C122.007 135.003 121.991 134.891 122.002 134.784C122.023 134.667 122.071 134.565 122.146 134.48C122.22 134.395 122.311 134.347 122.418 134.336C122.535 134.315 122.658 134.341 122.786 134.416C123.202 134.651 123.602 134.816 123.986 134.912C124.38 135.008 124.77 135.056 125.154 135.056C125.74 135.056 126.183 134.949 126.482 134.736C126.78 134.523 126.93 134.24 126.93 133.888C126.93 133.589 126.828 133.36 126.626 133.2C126.434 133.029 126.13 132.901 125.714 132.816L124.226 132.512C123.564 132.363 123.063 132.117 122.722 131.776C122.391 131.424 122.226 130.976 122.226 130.432C122.226 129.952 122.354 129.536 122.61 129.184C122.876 128.821 123.244 128.544 123.714 128.352C124.183 128.16 124.722 128.064 125.33 128.064C125.799 128.064 126.242 128.128 126.658 128.256C127.084 128.373 127.468 128.555 127.81 128.8C127.938 128.875 128.018 128.971 128.05 129.088C128.092 129.195 128.098 129.307 128.066 129.424C128.044 129.531 127.996 129.621 127.922 129.696C127.847 129.771 127.751 129.819 127.634 129.84C127.516 129.851 127.388 129.819 127.25 129.744C126.94 129.531 126.62 129.381 126.29 129.296C125.97 129.2 125.65 129.152 125.33 129.152C124.754 129.152 124.316 129.264 124.018 129.488C123.73 129.712 123.586 130.005 123.586 130.368C123.586 130.645 123.671 130.875 123.842 131.056C124.023 131.237 124.306 131.371 124.69 131.456L126.178 131.76C126.871 131.909 127.394 132.149 127.746 132.48C128.098 132.8 128.274 133.237 128.274 133.792C128.274 134.517 127.986 135.093 127.41 135.52C126.844 135.936 126.082 136.144 125.122 136.144Z" fill="black"/>
</svg>
