<svg width="106" height="142" viewBox="0 0 106 142" fill="none" xmlns="http://www.w3.org/2000/svg">
<path d="M52.8784 105.757C82.0823 105.757 105.757 82.0823 105.757 52.8784C105.757 23.6745 82.0823 0 52.8784 0C23.6745 0 0 23.6745 0 52.8784C0 82.0823 23.6745 105.757 52.8784 105.757Z" fill="#A472B0"/>
<path d="M52.8784 82.4691C36.5571 82.4691 23.2877 69.1997 23.2877 52.8784C23.2877 36.5571 36.6234 23.2214 52.9447 23.2877C69.266 23.3541 82.5354 36.6234 82.5354 52.9447C82.4691 69.266 69.1997 82.5354 52.8784 82.4691ZM68.0055 37.8177C67.7401 37.884 67.6737 37.9504 67.541 37.9504C60.84 40.936 54.0726 43.8552 47.3716 46.8408C47.1726 46.9735 46.9072 47.1726 46.7745 47.438C43.7889 54.139 40.8696 60.84 37.9504 67.541C37.884 67.6737 37.884 67.8064 37.8177 68.0055C38.0167 67.9391 38.0831 67.8728 38.1494 67.8728C44.8504 64.8872 51.6178 61.9679 58.3188 58.9823C58.5842 58.8496 58.8496 58.5842 58.9159 58.3188C60.641 54.4044 62.366 50.4899 64.091 46.5091C65.4179 43.6562 66.6785 40.8033 68.0055 37.8177Z" fill="white"/>
<path d="M56.2621 52.5466C56.2621 54.4044 54.8024 55.9303 52.9447 55.9303C51.0207 55.9303 49.4947 54.4707 49.561 52.5466C49.561 50.6889 51.087 49.163 52.9447 49.163C54.7361 49.163 56.2621 50.6889 56.2621 52.5466Z" fill="white"/>
<path d="M18.3171 136.112C18.0718 136.112 17.8851 136.048 17.7571 135.92C17.6291 135.781 17.5651 135.589 17.5651 135.344V125.984H14.0611C13.8585 125.984 13.6985 125.931 13.5811 125.824C13.4638 125.707 13.4051 125.547 13.4051 125.344C13.4051 125.141 13.4638 124.987 13.5811 124.88C13.6985 124.773 13.8585 124.72 14.0611 124.72H22.5571C22.7705 124.72 22.9305 124.773 23.0371 124.88C23.1545 124.987 23.2131 125.141 23.2131 125.344C23.2131 125.547 23.1545 125.707 23.0371 125.824C22.9305 125.931 22.7705 125.984 22.5571 125.984H19.0531V135.344C19.0531 135.589 18.9891 135.781 18.8611 135.92C18.7438 136.048 18.5625 136.112 18.3171 136.112ZM23.8575 136.112C23.6122 136.112 23.4255 136.048 23.2975 135.92C23.1695 135.792 23.1055 135.605 23.1055 135.36V128.832C23.1055 128.587 23.1695 128.405 23.2975 128.288C23.4255 128.16 23.6015 128.096 23.8255 128.096C24.0495 128.096 24.2202 128.16 24.3375 128.288C24.4655 128.405 24.5295 128.587 24.5295 128.832V130.064H24.3695C24.5402 129.424 24.8602 128.939 25.3295 128.608C25.7988 128.277 26.3908 128.091 27.1055 128.048C27.2762 128.037 27.4148 128.08 27.5215 128.176C27.6282 128.261 27.6868 128.411 27.6975 128.624C27.7082 128.827 27.6602 128.992 27.5535 129.12C27.4468 129.237 27.2815 129.307 27.0575 129.328L26.7695 129.344C26.0655 129.419 25.5215 129.648 25.1375 130.032C24.7642 130.416 24.5775 130.944 24.5775 131.616V135.36C24.5775 135.605 24.5135 135.792 24.3855 135.92C24.2682 136.048 24.0922 136.112 23.8575 136.112ZM31.3511 136.144C30.8178 136.144 30.3325 136.037 29.8951 135.824C29.4685 135.611 29.1325 135.323 28.8871 134.96C28.6525 134.597 28.5351 134.192 28.5351 133.744C28.5351 133.168 28.6791 132.715 28.9671 132.384C29.2551 132.053 29.7405 131.819 30.4231 131.68C31.1058 131.531 32.0231 131.456 33.1751 131.456H33.9271V132.384H33.2071C32.3858 132.384 31.7351 132.421 31.2551 132.496C30.7858 132.571 30.4551 132.704 30.2631 132.896C30.0711 133.077 29.9751 133.333 29.9751 133.664C29.9751 134.08 30.1191 134.421 30.4071 134.688C30.7058 134.955 31.1111 135.088 31.6231 135.088C32.0285 135.088 32.3858 134.992 32.6951 134.8C33.0045 134.597 33.2498 134.331 33.4311 134C33.6125 133.659 33.7031 133.269 33.7031 132.832V130.992C33.7031 130.363 33.5751 129.909 33.3191 129.632C33.0631 129.344 32.6311 129.2 32.0231 129.2C31.6711 129.2 31.3085 129.248 30.9351 129.344C30.5618 129.44 30.1725 129.589 29.7671 129.792C29.6071 129.867 29.4685 129.893 29.3511 129.872C29.2338 129.84 29.1378 129.776 29.0631 129.68C28.9991 129.573 28.9618 129.461 28.9511 129.344C28.9511 129.216 28.9778 129.093 29.0311 128.976C29.0951 128.859 29.2018 128.773 29.3511 128.72C29.8205 128.485 30.2845 128.32 30.7431 128.224C31.2125 128.117 31.6498 128.064 32.0551 128.064C32.7485 128.064 33.3191 128.176 33.7671 128.4C34.2151 128.613 34.5511 128.949 34.7751 129.408C34.9991 129.856 35.1111 130.432 35.1111 131.136V135.36C35.1111 135.605 35.0525 135.792 34.9351 135.92C34.8178 136.048 34.6471 136.112 34.4231 136.112C34.2098 136.112 34.0391 136.048 33.9111 135.92C33.7938 135.792 33.7351 135.605 33.7351 135.36V134.224H33.8791C33.7938 134.619 33.6338 134.96 33.3991 135.248C33.1645 135.536 32.8711 135.76 32.5191 135.92C32.1778 136.069 31.7885 136.144 31.3511 136.144ZM38.1224 136.112C37.8984 136.112 37.7224 136.048 37.5944 135.92C37.4664 135.792 37.4024 135.605 37.4024 135.36V128.832C37.4024 128.587 37.4664 128.405 37.5944 128.288C37.7224 128.16 37.8984 128.096 38.1224 128.096C38.3464 128.096 38.517 128.16 38.6344 128.288C38.7624 128.405 38.8264 128.587 38.8264 128.832V130.144L38.6504 129.904C38.8744 129.296 39.237 128.837 39.7384 128.528C40.2504 128.219 40.8317 128.064 41.4824 128.064C42.1117 128.064 42.629 128.176 43.0344 128.4C43.4397 128.624 43.7437 128.965 43.9464 129.424C44.149 129.883 44.2504 130.464 44.2504 131.168V135.36C44.2504 135.605 44.1864 135.792 44.0584 135.92C43.941 136.048 43.765 136.112 43.5304 136.112C43.2957 136.112 43.1144 136.048 42.9864 135.92C42.8584 135.792 42.7944 135.605 42.7944 135.36V131.248C42.7944 130.555 42.661 130.048 42.3944 129.728C42.1277 129.408 41.701 129.248 41.1144 129.248C40.4317 129.248 39.8824 129.461 39.4664 129.888C39.061 130.304 38.8584 130.869 38.8584 131.584V135.36C38.8584 135.861 38.613 136.112 38.1224 136.112ZM49.2466 136.144C48.7666 136.144 48.2813 136.091 47.7906 135.984C47.3106 135.867 46.8573 135.669 46.4306 135.392C46.3133 135.317 46.228 135.227 46.1746 135.12C46.132 135.003 46.116 134.891 46.1266 134.784C46.148 134.667 46.196 134.565 46.2706 134.48C46.3453 134.395 46.436 134.347 46.5426 134.336C46.66 134.315 46.7826 134.341 46.9106 134.416C47.3266 134.651 47.7266 134.816 48.1106 134.912C48.5053 135.008 48.8946 135.056 49.2786 135.056C49.8653 135.056 50.308 134.949 50.6066 134.736C50.9053 134.523 51.0546 134.24 51.0546 133.888C51.0546 133.589 50.9533 133.36 50.7506 133.2C50.5586 133.029 50.2546 132.901 49.8386 132.816L48.3506 132.512C47.6893 132.363 47.188 132.117 46.8466 131.776C46.516 131.424 46.3506 130.976 46.3506 130.432C46.3506 129.952 46.4786 129.536 46.7346 129.184C47.0013 128.821 47.3693 128.544 47.8386 128.352C48.308 128.16 48.8466 128.064 49.4546 128.064C49.924 128.064 50.3666 128.128 50.7826 128.256C51.2093 128.373 51.5933 128.555 51.9346 128.8C52.0626 128.875 52.1426 128.971 52.1746 129.088C52.2173 129.195 52.2226 129.307 52.1906 129.424C52.1693 129.531 52.1213 129.621 52.0466 129.696C51.972 129.771 51.876 129.819 51.7586 129.84C51.6413 129.851 51.5133 129.819 51.3746 129.744C51.0653 129.531 50.7453 129.381 50.4146 129.296C50.0946 129.2 49.7746 129.152 49.4546 129.152C48.8786 129.152 48.4413 129.264 48.1426 129.488C47.8546 129.712 47.7106 130.005 47.7106 130.368C47.7106 130.645 47.796 130.875 47.9666 131.056C48.148 131.237 48.4306 131.371 48.8146 131.456L50.3026 131.76C50.996 131.909 51.5186 132.149 51.8706 132.48C52.2226 132.8 52.3986 133.237 52.3986 133.792C52.3986 134.517 52.1106 135.093 51.5346 135.52C50.9693 135.936 50.2066 136.144 49.2466 136.144ZM56.741 136.144C55.941 136.144 55.333 135.909 54.917 135.44C54.501 134.96 54.293 134.272 54.293 133.376V125.344C54.293 125.099 54.357 124.917 54.485 124.8C54.613 124.672 54.789 124.608 55.013 124.608C55.2477 124.608 55.429 124.672 55.557 124.8C55.685 124.917 55.749 125.099 55.749 125.344V133.264C55.749 133.819 55.861 134.235 56.085 134.512C56.3197 134.779 56.6503 134.912 57.077 134.912C57.173 134.912 57.2583 134.912 57.333 134.912C57.4077 134.901 57.4823 134.891 57.557 134.88C57.6743 134.869 57.7597 134.901 57.813 134.976C57.8663 135.051 57.893 135.2 57.893 135.424C57.893 135.627 57.845 135.787 57.749 135.904C57.6637 136.011 57.5197 136.08 57.317 136.112C57.221 136.123 57.125 136.128 57.029 136.128C56.933 136.139 56.837 136.144 56.741 136.144ZM61.5855 136.144C61.0522 136.144 60.5668 136.037 60.1295 135.824C59.7028 135.611 59.3668 135.323 59.1215 134.96C58.8868 134.597 58.7695 134.192 58.7695 133.744C58.7695 133.168 58.9135 132.715 59.2015 132.384C59.4895 132.053 59.9748 131.819 60.6575 131.68C61.3402 131.531 62.2575 131.456 63.4095 131.456H64.1615V132.384H63.4415C62.6202 132.384 61.9695 132.421 61.4895 132.496C61.0202 132.571 60.6895 132.704 60.4975 132.896C60.3055 133.077 60.2095 133.333 60.2095 133.664C60.2095 134.08 60.3535 134.421 60.6415 134.688C60.9402 134.955 61.3455 135.088 61.8575 135.088C62.2628 135.088 62.6202 134.992 62.9295 134.8C63.2388 134.597 63.4842 134.331 63.6655 134C63.8468 133.659 63.9375 133.269 63.9375 132.832V130.992C63.9375 130.363 63.8095 129.909 63.5535 129.632C63.2975 129.344 62.8655 129.2 62.2575 129.2C61.9055 129.2 61.5428 129.248 61.1695 129.344C60.7962 129.44 60.4068 129.589 60.0015 129.792C59.8415 129.867 59.7028 129.893 59.5855 129.872C59.4682 129.84 59.3722 129.776 59.2975 129.68C59.2335 129.573 59.1962 129.461 59.1855 129.344C59.1855 129.216 59.2122 129.093 59.2655 128.976C59.3295 128.859 59.4362 128.773 59.5855 128.72C60.0548 128.485 60.5188 128.32 60.9775 128.224C61.4468 128.117 61.8842 128.064 62.2895 128.064C62.9828 128.064 63.5535 128.176 64.0015 128.4C64.4495 128.613 64.7855 128.949 65.0095 129.408C65.2335 129.856 65.3455 130.432 65.3455 131.136V135.36C65.3455 135.605 65.2868 135.792 65.1695 135.92C65.0522 136.048 64.8815 136.112 64.6575 136.112C64.4442 136.112 64.2735 136.048 64.1455 135.92C64.0282 135.792 63.9695 135.605 63.9695 135.36V134.224H64.1135C64.0282 134.619 63.8682 134.96 63.6335 135.248C63.3988 135.536 63.1055 135.76 62.7535 135.92C62.4122 136.069 62.0228 136.144 61.5855 136.144ZM70.6128 136.144C69.9301 136.144 69.3274 135.984 68.8048 135.664C68.2928 135.333 67.8928 134.864 67.6048 134.256C67.3168 133.637 67.1728 132.917 67.1728 132.096C67.1728 131.264 67.3114 130.549 67.5888 129.952C67.8768 129.344 68.2768 128.88 68.7888 128.56C69.3114 128.229 69.9194 128.064 70.6128 128.064C71.3061 128.064 71.9034 128.24 72.4048 128.592C72.9061 128.933 73.2421 129.392 73.4128 129.968H73.2368V125.344C73.2368 125.099 73.2954 124.917 73.4128 124.8C73.5408 124.672 73.7221 124.608 73.9568 124.608C74.1914 124.608 74.3728 124.672 74.5008 124.8C74.6288 124.917 74.6927 125.099 74.6927 125.344V135.36C74.6927 135.605 74.6288 135.792 74.5008 135.92C74.3728 136.048 74.1914 136.112 73.9568 136.112C73.7328 136.112 73.5568 136.048 73.4288 135.92C73.3008 135.792 73.2368 135.605 73.2368 135.36V133.904L73.4128 134.192C73.2528 134.789 72.9168 135.264 72.4048 135.616C71.9034 135.968 71.3061 136.144 70.6128 136.144ZM70.9488 134.992C71.4181 134.992 71.8234 134.88 72.1648 134.656C72.5168 134.432 72.7834 134.107 72.9648 133.68C73.1568 133.253 73.2528 132.725 73.2528 132.096C73.2528 131.157 73.0448 130.443 72.6288 129.952C72.2128 129.461 71.6528 129.216 70.9488 129.216C70.4901 129.216 70.0848 129.328 69.7328 129.552C69.3914 129.765 69.1248 130.085 68.9328 130.512C68.7408 130.939 68.6448 131.467 68.6448 132.096C68.6448 133.035 68.8528 133.755 69.2688 134.256C69.6954 134.747 70.2554 134.992 70.9488 134.992ZM80.3394 136.144C79.5714 136.144 78.9047 135.979 78.3394 135.648C77.774 135.317 77.3367 134.848 77.0274 134.24C76.718 133.632 76.5634 132.917 76.5634 132.096C76.5634 131.477 76.6487 130.923 76.8194 130.432C77.0007 129.931 77.2567 129.504 77.5874 129.152C77.918 128.8 78.3127 128.533 78.7714 128.352C79.2407 128.16 79.7634 128.064 80.3394 128.064C81.1074 128.064 81.774 128.229 82.3394 128.56C82.9047 128.891 83.342 129.36 83.6514 129.968C83.9607 130.565 84.1154 131.275 84.1154 132.096C84.1154 132.715 84.0247 133.275 83.8434 133.776C83.6727 134.277 83.422 134.704 83.0914 135.056C82.7607 135.408 82.3607 135.68 81.8914 135.872C81.4327 136.053 80.9154 136.144 80.3394 136.144ZM80.3394 134.992C80.8087 134.992 81.214 134.88 81.5554 134.656C81.9074 134.432 82.174 134.107 82.3554 133.68C82.5474 133.253 82.6434 132.725 82.6434 132.096C82.6434 131.157 82.4354 130.443 82.0194 129.952C81.6034 129.461 81.0434 129.216 80.3394 129.216C79.8807 129.216 79.4754 129.328 79.1234 129.552C78.782 129.765 78.5154 130.085 78.3234 130.512C78.1314 130.939 78.0354 131.467 78.0354 132.096C78.0354 133.035 78.2434 133.755 78.6594 134.256C79.086 134.747 79.646 134.992 80.3394 134.992ZM88.6685 136.144C88.1885 136.144 87.7032 136.091 87.2125 135.984C86.7325 135.867 86.2792 135.669 85.8525 135.392C85.7352 135.317 85.6498 135.227 85.5965 135.12C85.5538 135.003 85.5378 134.891 85.5485 134.784C85.5698 134.667 85.6178 134.565 85.6925 134.48C85.7672 134.395 85.8578 134.347 85.9645 134.336C86.0818 134.315 86.2045 134.341 86.3325 134.416C86.7485 134.651 87.1485 134.816 87.5325 134.912C87.9272 135.008 88.3165 135.056 88.7005 135.056C89.2872 135.056 89.7298 134.949 90.0285 134.736C90.3272 134.523 90.4765 134.24 90.4765 133.888C90.4765 133.589 90.3752 133.36 90.1725 133.2C89.9805 133.029 89.6765 132.901 89.2605 132.816L87.7725 132.512C87.1112 132.363 86.6098 132.117 86.2685 131.776C85.9378 131.424 85.7725 130.976 85.7725 130.432C85.7725 129.952 85.9005 129.536 86.1565 129.184C86.4232 128.821 86.7912 128.544 87.2605 128.352C87.7298 128.16 88.2685 128.064 88.8765 128.064C89.3458 128.064 89.7885 128.128 90.2045 128.256C90.6312 128.373 91.0152 128.555 91.3565 128.8C91.4845 128.875 91.5645 128.971 91.5965 129.088C91.6392 129.195 91.6445 129.307 91.6125 129.424C91.5912 129.531 91.5432 129.621 91.4685 129.696C91.3938 129.771 91.2978 129.819 91.1805 129.84C91.0632 129.851 90.9352 129.819 90.7965 129.744C90.4872 129.531 90.1672 129.381 89.8365 129.296C89.5165 129.2 89.1965 129.152 88.8765 129.152C88.3005 129.152 87.8632 129.264 87.5645 129.488C87.2765 129.712 87.1325 130.005 87.1325 130.368C87.1325 130.645 87.2178 130.875 87.3885 131.056C87.5698 131.237 87.8525 131.371 88.2365 131.456L89.7245 131.76C90.4178 131.909 90.9405 132.149 91.2925 132.48C91.6445 132.8 91.8205 133.237 91.8205 133.792C91.8205 134.517 91.5325 135.093 90.9565 135.52C90.3912 135.936 89.6285 136.144 88.6685 136.144Z" fill="black"/>
</svg>
