<svg width="27" height="27" viewBox="0 0 27 27" fill="none" xmlns="http://www.w3.org/2000/svg">
<path fill-rule="evenodd" clip-rule="evenodd" d="M26.6376 10.2354C25.1562 4.17496 19.9711 0.0673381 13.6414 0C12.8333 0.0673381 11.8906 0.134676 11.0825 0.269352C2.32857 2.02014 -2.25042 11.7842 1.99188 19.5954C2.12655 19.7974 2.12655 19.9994 2.12655 20.2688C1.52051 22.2889 0.914468 24.3764 0.375763 26.4639C0.308425 26.8006 0.308426 26.8006 0.645116 26.7332C2.79993 26.1272 4.95475 25.5885 7.10957 25.0498C7.31158 24.9824 7.44626 24.9824 7.58094 25.0498C10.3418 26.4639 13.2373 26.8679 16.3349 26.2619C23.6074 24.9151 28.3884 17.4406 26.6376 10.2354ZM15.5268 24.1744C14.9208 24.309 14.3147 24.3764 13.9781 24.309C11.6212 24.309 9.73575 23.7703 7.98496 22.7603C7.71561 22.6256 7.5136 22.5583 7.31158 22.6256C6.0995 22.8949 4.95475 23.2316 3.74267 23.5683C3.47331 23.6357 3.47331 23.5683 3.54065 23.3663C3.87734 22.2889 4.14669 21.1442 4.48338 19.9994C4.55072 19.6627 4.55072 19.4607 4.34871 19.1914C1.92454 15.2857 2.05921 10.4374 4.75274 6.80115C7.58094 3.03021 11.4192 1.48144 15.9982 2.49151C20.5098 3.43424 23.4054 6.39712 24.4155 10.8414C25.8969 17.0365 21.7219 23.1643 15.5268 24.1744Z" fill="white"/>
<path fill-rule="evenodd" clip-rule="evenodd" d="M17.1429 19.5954C16.6716 19.6627 16.2002 19.528 15.7962 19.3934C12.766 18.518 10.4765 16.6325 8.591 14.141C7.91762 13.1983 7.24425 12.1882 7.04223 10.9761C6.77288 9.62933 7.1769 8.34991 8.25431 7.40718C8.591 7.07049 9.60107 6.93581 10.0051 7.13782C10.1398 7.2725 10.2071 7.33984 10.2745 7.47451C10.6785 8.41725 11.0825 9.29264 11.4192 10.168C11.4865 10.3701 11.4865 10.5721 11.3519 10.7067C11.1499 11.1108 10.8132 11.4475 10.5438 11.7842C10.2745 11.9862 10.2745 12.2555 10.4765 12.5249C11.5539 14.343 13.0353 15.6898 14.9881 16.4305C15.2575 16.5652 15.4595 16.4978 15.6615 16.2958C15.9982 15.8918 16.3349 15.4877 16.6716 15.0164C16.8736 14.747 17.1429 14.6797 17.4123 14.8144C18.0857 15.0837 18.6917 15.4204 19.2978 15.6898C19.4998 15.7571 19.5671 15.8244 19.7691 15.8918C20.4425 16.2285 20.4425 16.2285 20.3752 16.9692C20.3078 18.3833 19.2304 19.0567 18.0183 19.3934C17.6816 19.6627 17.4123 19.6627 17.1429 19.5954Z" fill="white"/>
</svg>
